<?xml version="1.0" encoding="UTF-8"?>
<svg id="Layer_3" data-name="Layer 3" xmlns="http://www.w3.org/2000/svg" viewBox="0 0 857.91 343.11">
  <defs>
    <style>
      .cls-1 {
        fill: #a8aaac;
      }

      .cls-1, .cls-2, .cls-3, .cls-4 {
        stroke: #fff;
      }

      .cls-1, .cls-2, .cls-4 {
        stroke-width: 1.5px;
      }

      .cls-5 {
        fill: #fff;
      }

      .cls-6 {
        fill: #a7a8aa;
      }

      .cls-7, .cls-8, .cls-9, .cls-10, .cls-11 {
        fill: none;
      }

      .cls-7, .cls-9, .cls-10, .cls-11 {
        stroke: #a7a8aa;
        stroke-linecap: round;
        stroke-miterlimit: 10;
      }

      .cls-2, .cls-12 {
        fill: #00af9a;
      }

      .cls-13, .cls-4 {
        fill: #00a0df;
      }

      .cls-3 {
        stroke-width: 2px;
      }

      .cls-3, .cls-14 {
        fill: #002856;
      }

      .cls-9 {
        stroke-dasharray: .02 1.96;
      }

      .cls-10 {
        stroke-dasharray: .02 2.02;
      }

      .cls-11 {
        stroke-dasharray: .02 1.99;
      }
    </style>
  </defs>
  <g>
    <path class="cls-8" d="M169.65,173.47l108.4-129.19C246.73,17.99,210.53,4.82,169.65,4.82v168.65Z"/>
    <path class="cls-8" d="M169.65,173.47l144.56,86.86c42.89-71.37,27.63-162.53-36.15-216.05l-108.4,129.19Z"/>
    <path class="cls-3" d="M169.65,173.47V4.82C76.51,4.82,1,80.33,1,173.47s75.51,168.65,168.65,168.65c62.03,0,112.61-28.62,144.56-81.79l-144.56-86.86Z"/>
  </g>
  <circle class="cls-5" cx="169.67" cy="177.29" r="135.67" transform="translate(-75.66 171.9) rotate(-45)"/>
  <g>
    <path class="cls-8" d="M169.63,177.28l86.72-103.35c-25.06-21.03-54.01-31.56-86.72-31.56v134.92Z"/>
    <path class="cls-8" d="M169.63,177.28l-132.87-23.43c-12.94,73.38,36.06,143.36,109.44,156.29s143.36-36.06,156.29-109.44c8.62-48.87-8.13-94.88-46.14-126.78l-86.72,103.35Z"/>
    <path class="cls-2" d="M169.63,177.28V42.36c-66.61,0-121.3,45.89-132.87,111.49l132.87,23.43Z"/>
  </g>
  <circle class="cls-5" cx="169.7" cy="177.46" r="104.72" transform="translate(-75.78 171.98) rotate(-45)"/>
  <g>
    <path class="cls-8" d="M169.72,177.46l102.58-16.25c-8.02-50.65-51.3-87.62-102.58-87.62v103.86Z"/>
    <path class="cls-8" d="M169.72,177.46l-65.36-80.72c-44.58,36.1-51.45,101.5-15.35,146.08,36.1,44.58,101.5,51.45,146.08,15.35,29.69-24.04,43.2-59.23,37.22-96.96l-102.58,16.25Z"/>
    <path class="cls-4" d="M169.72,177.46v-103.86c-25.18,0-45.79,7.3-65.36,23.15l65.36,80.72Z"/>
  </g>
  <circle class="cls-5" cx="171.22" cy="177.46" r="75" transform="translate(-75.34 173.05) rotate(-45)"/>
  <g>
    <line class="cls-7" x1="168.88" y1="15.17" x2="168.89" y2="15.17"/>
    <line class="cls-9" x1="170.85" y1="15.17" x2="209.44" y2="15.17"/>
    <line class="cls-7" x1="210.42" y1="15.17" x2="210.43" y2="15.17"/>
  </g>
  <g>
    <path class="cls-14" d="M353.81,26.87h-4.17l-.79,2.38h-2.53l4.3-11.55h2.21l4.32,11.55h-2.53l-.8-2.38ZM350.28,24.95h2.89l-1.45-4.32-1.44,4.32Z"/>
    <path class="cls-14" d="M362.77,26.88c0-.28-.14-.5-.42-.66s-.72-.31-1.34-.43c-2.04-.43-3.06-1.3-3.06-2.6,0-.76.32-1.4.95-1.91.63-.51,1.46-.77,2.48-.77,1.09,0,1.96.26,2.61.77.65.51.98,1.18.98,2h-2.29c0-.33-.11-.6-.32-.81-.21-.21-.54-.32-.99-.32-.39,0-.69.09-.9.26s-.32.4-.32.67c0,.25.12.46.36.61.24.16.65.29,1.22.41.57.11,1.05.24,1.44.38,1.21.44,1.82,1.21,1.82,2.31,0,.78-.34,1.42-1.01,1.9-.67.48-1.54.73-2.6.73-.72,0-1.36-.13-1.92-.38-.56-.26-1-.61-1.31-1.05s-.48-.93-.48-1.45h2.17c.02.41.17.72.45.94.28.22.66.33,1.13.33.44,0,.77-.08,1-.25.22-.17.34-.38.34-.65Z"/>
    <path class="cls-14" d="M366.48,18.45c0-.34.12-.63.35-.85.23-.22.54-.33.94-.33s.7.11.94.33c.23.22.35.51.35.85s-.12.63-.35.86c-.24.22-.55.33-.93.33s-.7-.11-.93-.33c-.24-.22-.35-.51-.35-.86ZM368.91,29.26h-2.3v-8.58h2.3v8.58Z"/>
    <path class="cls-14" d="M375.79,29.26c-.11-.21-.18-.46-.23-.77-.56.62-1.28.93-2.17.93-.84,0-1.54-.24-2.09-.73s-.83-1.1-.83-1.84c0-.91.34-1.61,1.01-2.09s1.65-.73,2.92-.74h1.06v-.49c0-.4-.1-.71-.31-.95-.2-.24-.53-.36-.96-.36-.39,0-.69.09-.91.28-.22.19-.33.44-.33.76h-2.29c0-.5.15-.96.46-1.38.31-.42.74-.76,1.3-1,.56-.24,1.19-.36,1.89-.36,1.06,0,1.9.27,2.52.8.62.53.93,1.28.93,2.24v3.72c0,.81.12,1.43.34,1.85v.13h-2.32ZM373.9,27.66c.34,0,.65-.08.94-.23.29-.15.5-.35.63-.61v-1.48h-.86c-1.15,0-1.76.4-1.83,1.19v.13c0,.29.09.52.29.71.2.19.48.28.83.28Z"/>
    <path class="cls-14" d="M384.04,25.23h-4.47v-1.85h4.47v1.85Z"/>
    <path class="cls-14" d="M388.61,25.18v4.07h-2.38v-11.55h4.51c.87,0,1.63.16,2.29.48.66.32,1.17.77,1.52,1.35.35.58.53,1.25.53,2,0,1.13-.39,2.03-1.16,2.68-.78.65-1.85.98-3.22.98h-2.09ZM388.61,23.26h2.13c.63,0,1.11-.15,1.44-.45.33-.3.5-.72.5-1.27s-.17-1.02-.5-1.37c-.33-.35-.79-.53-1.38-.54h-2.18v3.63Z"/>
    <path class="cls-14" d="M401.46,29.26c-.11-.21-.18-.46-.23-.77-.56.62-1.28.93-2.17.93-.84,0-1.54-.24-2.09-.73s-.83-1.1-.83-1.84c0-.91.34-1.61,1.01-2.09s1.65-.73,2.92-.74h1.06v-.49c0-.4-.1-.71-.31-.95-.2-.24-.53-.36-.96-.36-.39,0-.69.09-.91.28-.22.19-.33.44-.33.76h-2.29c0-.5.15-.96.46-1.38.31-.42.74-.76,1.3-1,.56-.24,1.19-.36,1.89-.36,1.06,0,1.9.27,2.52.8.62.53.93,1.28.93,2.24v3.72c0,.81.12,1.43.34,1.85v.13h-2.32ZM399.56,27.66c.34,0,.65-.08.94-.23.29-.15.5-.35.63-.61v-1.48h-.86c-1.15,0-1.76.4-1.83,1.19v.13c0,.29.09.52.29.71.2.19.48.28.83.28Z"/>
    <path class="cls-14" d="M408.78,27.56c.42,0,.77-.12,1.03-.35s.4-.54.41-.93h2.15c0,.58-.16,1.12-.48,1.6-.31.48-.74.86-1.28,1.13-.54.27-1.14.4-1.8.4-1.23,0-2.2-.39-2.9-1.17s-1.06-1.86-1.06-3.23v-.15c0-1.32.35-2.38,1.06-3.17.7-.79,1.67-1.18,2.9-1.18,1.07,0,1.93.31,2.58.92.65.61.98,1.42.99,2.44h-2.15c-.01-.45-.15-.81-.41-1.09s-.61-.42-1.05-.42c-.54,0-.94.2-1.21.58-.27.39-.41,1.02-.41,1.9v.24c0,.88.13,1.52.4,1.91.27.39.68.58,1.23.58Z"/>
    <path class="cls-14" d="M413.72,18.45c0-.34.12-.63.35-.85.23-.22.54-.33.94-.33s.7.11.94.33c.23.22.35.51.35.85s-.12.63-.35.86c-.24.22-.55.33-.93.33s-.7-.11-.93-.33c-.24-.22-.35-.51-.35-.86ZM416.15,29.26h-2.3v-8.58h2.3v8.58Z"/>
    <path class="cls-14" d="M418.64,29.26v-6.9h-1.28v-1.68h1.28v-.73c0-.96.28-1.71.83-2.24s1.33-.8,2.32-.8c.32,0,.71.05,1.17.16l-.02,1.78c-.19-.05-.42-.07-.7-.07-.86,0-1.29.4-1.29,1.21v.69h1.71v1.68h-1.71v6.9h-2.3Z"/>
    <path class="cls-14" d="M423.97,18.45c0-.34.12-.63.35-.85.23-.22.54-.33.94-.33s.7.11.94.33c.23.22.35.51.35.85s-.12.63-.35.86c-.24.22-.55.33-.93.33s-.7-.11-.93-.33c-.24-.22-.35-.51-.35-.86ZM426.41,29.26h-2.3v-8.58h2.3v8.58Z"/>
    <path class="cls-14" d="M431.86,27.56c.42,0,.77-.12,1.03-.35.26-.23.4-.54.41-.93h2.15c0,.58-.16,1.12-.48,1.6-.31.48-.74.86-1.28,1.13-.54.27-1.14.4-1.8.4-1.23,0-2.2-.39-2.9-1.17s-1.06-1.86-1.06-3.23v-.15c0-1.32.35-2.38,1.06-3.17s1.67-1.18,2.9-1.18c1.07,0,1.93.31,2.58.92.65.61.98,1.42.99,2.44h-2.15c-.01-.45-.15-.81-.41-1.09-.26-.28-.61-.42-1.05-.42-.53,0-.94.2-1.21.58-.27.39-.41,1.02-.41,1.9v.24c0,.88.13,1.52.4,1.91s.68.58,1.23.58Z"/>
  </g>
  <g>
    <path class="cls-14" d="M231.94,10.03v6.55c0,.65-.15,1.21-.43,1.69-.28.48-.68.85-1.19,1.1-.51.26-1.1.39-1.76.39-1.01,0-1.82-.28-2.43-.83-.61-.55-.92-1.32-.95-2.29v-6.61h.8v6.49c0,.81.23,1.44.69,1.88.46.45,1.09.67,1.88.67s1.42-.22,1.88-.67c.46-.45.69-1.07.69-1.87v-6.5h.82Z"/>
    <path class="cls-14" d="M239.7,17.26c0-.53-.19-.95-.56-1.26s-1.06-.6-2.05-.88c-.99-.28-1.72-.58-2.18-.91-.65-.47-.98-1.08-.98-1.83s.3-1.33.91-1.79c.6-.46,1.38-.69,2.32-.69.64,0,1.21.12,1.71.37.5.25.89.59,1.17,1.03s.42.93.42,1.47h-.82c0-.66-.22-1.18-.67-1.58-.45-.4-1.05-.6-1.81-.6s-1.32.16-1.75.49c-.44.33-.65.76-.65,1.28,0,.49.2.89.59,1.19.39.31,1.02.58,1.88.82s1.51.48,1.96.73c.44.25.78.55,1,.91.22.35.34.77.34,1.25,0,.76-.3,1.36-.91,1.82-.6.46-1.4.69-2.39.69-.68,0-1.3-.12-1.86-.36-.56-.24-.99-.58-1.29-1.02-.29-.43-.44-.93-.44-1.5h.81c0,.68.25,1.21.76,1.6.51.39,1.18.59,2.02.59.75,0,1.35-.17,1.8-.49.45-.33.68-.77.68-1.31Z"/>
    <path class="cls-14" d="M247.23,17.26c0-.49-.16-.89-.47-1.2-.32-.31-.88-.6-1.67-.88-.99-.31-1.69-.68-2.09-1.11s-.6-.98-.6-1.66c0-.72.22-1.3.66-1.74.44-.45,1.04-.7,1.79-.76v-1.33h.67v1.33c.77.07,1.37.36,1.8.87.42.51.64,1.2.64,2.07h-.78c0-.69-.18-1.24-.54-1.64-.36-.41-.85-.61-1.47-.61s-1.11.16-1.46.49c-.35.33-.52.77-.52,1.31s.16.94.48,1.24.87.58,1.64.84c.77.26,1.33.51,1.68.75.35.24.61.52.78.85.17.33.26.72.26,1.18,0,.72-.23,1.3-.68,1.74-.45.44-1.07.69-1.86.75v1.25h-.67v-1.25c-.88-.06-1.57-.33-2.05-.83-.48-.5-.73-1.18-.73-2.05h.79c0,.69.2,1.22.6,1.61s.96.58,1.67.58c.62,0,1.13-.17,1.53-.5.39-.33.59-.77.59-1.3Z"/>
    <path class="cls-14" d="M261.34,28.62h-1.58V11.33l-5.22,1.94v-1.48l6.54-2.43h.26v19.26Z"/>
    <path class="cls-14" d="M270.56,18.17h1.63c.91,0,1.7-.16,2.37-.48.68-.32,1.19-.76,1.55-1.32.36-.56.53-1.2.53-1.93,0-1.23-.35-2.19-1.04-2.89s-1.69-1.04-2.99-1.04c-1.23,0-2.24.36-3.03,1.09-.79.72-1.18,1.68-1.18,2.87h-1.58c0-.99.25-1.9.75-2.72.5-.82,1.2-1.46,2.08-1.91.89-.45,1.87-.67,2.95-.67,1.74,0,3.11.47,4.11,1.42s1.5,2.25,1.5,3.9c0,.92-.29,1.77-.88,2.55-.58.78-1.39,1.36-2.41,1.75,1.2.33,2.1.91,2.72,1.72.62.81.92,1.78.92,2.91,0,1.64-.54,2.97-1.61,3.97s-2.5,1.5-4.3,1.5c-1.14,0-2.19-.23-3.14-.69s-1.69-1.1-2.21-1.92c-.52-.82-.78-1.78-.78-2.87h1.58c0,1.22.43,2.22,1.28,2.99.85.77,1.95,1.15,3.28,1.15s2.42-.35,3.18-1.05c.76-.7,1.14-1.71,1.14-3.04s-.41-2.26-1.23-2.94c-.82-.68-2.03-1.01-3.63-1.01h-1.58v-1.35Z"/>
    <path class="cls-14" d="M282.8,18.79l.94-9.36h9.6v1.46h-8.24l-.67,6.49c1.03-.7,2.23-1.05,3.61-1.05,1.73,0,3.11.56,4.14,1.69,1.03,1.13,1.54,2.62,1.54,4.5,0,2.02-.5,3.59-1.5,4.71s-2.41,1.67-4.23,1.67c-1.67,0-3.02-.47-4.06-1.4s-1.63-2.24-1.78-3.92h1.52c.15,1.31.59,2.3,1.33,2.97.74.67,1.74,1.01,2.99,1.01,1.37,0,2.41-.43,3.1-1.3.7-.87,1.05-2.11,1.05-3.72,0-1.41-.39-2.55-1.17-3.44s-1.85-1.33-3.2-1.33c-.75,0-1.4.09-1.95.28-.55.19-1.14.56-1.75,1.1l-1.25-.36Z"/>
    <path class="cls-14" d="M296.83,27.68c0-.31.1-.57.3-.78.2-.22.47-.32.82-.32s.63.11.83.32c.2.21.3.48.3.78s-.1.56-.3.76c-.2.2-.48.3-.83.3s-.63-.1-.82-.3-.3-.45-.3-.76Z"/>
    <path class="cls-14" d="M306.46,18.17h1.63c.91,0,1.7-.16,2.37-.48.68-.32,1.19-.76,1.55-1.32.36-.56.53-1.2.53-1.93,0-1.23-.35-2.19-1.04-2.89s-1.69-1.04-2.99-1.04c-1.23,0-2.24.36-3.03,1.09-.79.72-1.18,1.68-1.18,2.87h-1.58c0-.99.25-1.9.75-2.72.5-.82,1.2-1.46,2.08-1.91.89-.45,1.87-.67,2.95-.67,1.74,0,3.11.47,4.11,1.42s1.5,2.25,1.5,3.9c0,.92-.29,1.77-.88,2.55-.58.78-1.39,1.36-2.41,1.75,1.2.33,2.1.91,2.72,1.72.62.81.92,1.78.92,2.91,0,1.64-.54,2.97-1.61,3.97s-2.5,1.5-4.3,1.5c-1.14,0-2.19-.23-3.14-.69s-1.69-1.1-2.21-1.92c-.52-.82-.78-1.78-.78-2.87h1.58c0,1.22.43,2.22,1.28,2.99.85.77,1.95,1.15,3.28,1.15s2.42-.35,3.18-1.05c.76-.7,1.14-1.71,1.14-3.04s-.41-2.26-1.23-2.94c-.82-.68-2.03-1.01-3.63-1.01h-1.58v-1.35Z"/>
    <path class="cls-14" d="M329.72,25.13c0,1.11-.25,1.99-.74,2.65-.49.65-1.15.98-1.98.98-.99,0-1.74-.37-2.25-1.11l-.03.98h-.74v-10.12h.78v4.03c.5-.78,1.24-1.17,2.23-1.17.84,0,1.51.32,2,.96.49.64.73,1.54.73,2.69v.12ZM328.93,24.99c0-.94-.18-1.67-.55-2.18s-.88-.77-1.54-.77c-.51,0-.93.12-1.29.37s-.62.61-.8,1.09v3.22c.4.9,1.09,1.34,2.1,1.34.65,0,1.16-.26,1.53-.77.37-.51.55-1.28.55-2.31Z"/>
    <path class="cls-14" d="M332.19,21.49l.03,1.22c.27-.44.6-.77,1-1s.84-.35,1.32-.35c.76,0,1.33.21,1.71.65s.56,1.08.57,1.94v4.68h-.78v-4.69c0-.64-.14-1.11-.41-1.42-.27-.31-.69-.47-1.28-.47-.49,0-.92.15-1.3.46-.38.3-.65.72-.83,1.24v4.88h-.78v-7.13h.75Z"/>
    <path class="cls-14" d="M338.81,28.15c0-.15.05-.28.15-.39.1-.11.24-.16.41-.16s.31.05.42.16c.1.11.15.24.15.39s-.05.28-.15.38c-.1.1-.24.15-.42.15s-.31-.05-.41-.15c-.1-.1-.15-.22-.15-.38Z"/>
  </g>
  <g>
    <path class="cls-13" d="M340.24,99.96h-4.57v3.09h5.36v1.91h-7.74v-11.55h7.73v1.93h-5.35v2.75h4.57v1.86Z"/>
    <path class="cls-13" d="M345.94,93.41l2.97,8.38,2.95-8.38h3.13v11.55h-2.39v-3.16l.24-5.45-3.12,8.61h-1.63l-3.11-8.6.24,5.44v3.16h-2.38v-11.55h3.11Z"/>
    <path class="cls-13" d="M364.31,99.96h-4.57v3.09h5.36v1.91h-7.74v-11.55h7.73v1.93h-5.35v2.75h4.57v1.86Z"/>
    <path class="cls-13" d="M373.65,102.58h-4.17l-.79,2.38h-2.53l4.3-11.55h2.21l4.32,11.55h-2.53l-.8-2.38ZM370.12,100.66h2.89l-1.45-4.32-1.44,4.32Z"/>
  </g>
  <g>
    <path class="cls-13" d="M230.43,86.37v6.55c0,.65-.15,1.21-.43,1.69-.28.48-.68.85-1.19,1.1-.51.26-1.1.39-1.76.39-1.01,0-1.82-.28-2.43-.83-.61-.55-.92-1.32-.95-2.29v-6.61h.8v6.49c0,.81.23,1.44.69,1.88.46.45,1.09.67,1.88.67s1.42-.22,1.88-.67c.46-.45.69-1.07.69-1.87v-6.5h.82Z"/>
    <path class="cls-13" d="M238.2,93.6c0-.53-.19-.95-.56-1.26s-1.06-.6-2.05-.88c-.99-.28-1.72-.58-2.18-.91-.65-.47-.98-1.08-.98-1.83s.3-1.33.91-1.79c.6-.46,1.38-.69,2.32-.69.64,0,1.21.12,1.71.37.5.25.89.59,1.17,1.03s.42.93.42,1.47h-.82c0-.66-.22-1.18-.67-1.58-.45-.4-1.05-.6-1.81-.6s-1.32.16-1.75.49c-.44.33-.65.76-.65,1.28,0,.49.2.89.59,1.19.39.31,1.02.58,1.88.82s1.51.48,1.96.73c.44.25.78.55,1,.91.22.35.34.77.34,1.25,0,.76-.3,1.36-.91,1.82-.6.46-1.4.69-2.39.69-.68,0-1.3-.12-1.86-.36-.56-.24-.99-.58-1.29-1.02-.29-.43-.44-.93-.44-1.5h.81c0,.68.25,1.21.76,1.6.51.39,1.18.59,2.02.59.75,0,1.35-.17,1.8-.49.45-.33.68-.77.68-1.31Z"/>
    <path class="cls-13" d="M245.73,93.6c0-.49-.16-.89-.47-1.2-.32-.31-.88-.6-1.67-.88-.99-.31-1.69-.68-2.09-1.11s-.6-.98-.6-1.66c0-.72.22-1.3.66-1.74.44-.45,1.04-.7,1.79-.76v-1.33h.67v1.33c.77.07,1.37.36,1.8.87.42.51.64,1.2.64,2.07h-.78c0-.69-.18-1.24-.54-1.64-.36-.41-.85-.61-1.47-.61s-1.11.16-1.46.49c-.35.33-.52.77-.52,1.31s.16.94.48,1.24.87.58,1.64.84c.77.26,1.33.51,1.68.75.35.24.61.52.78.85.17.33.26.72.26,1.18,0,.72-.23,1.3-.68,1.74-.45.44-1.07.69-1.86.75v1.25h-.67v-1.25c-.88-.06-1.57-.33-2.05-.83-.48-.5-.73-1.18-.73-2.05h.79c0,.69.2,1.22.6,1.61s.96.58,1.67.58c.62,0,1.13-.17,1.53-.5.39-.33.59-.77.59-1.3Z"/>
    <path class="cls-13" d="M264.52,104.96h-12.02v-1.21l6.58-7.46c1.09-1.26,1.85-2.29,2.27-3.11s.63-1.61.63-2.39c0-1.21-.36-2.17-1.07-2.88-.71-.71-1.69-1.06-2.94-1.06s-2.34.41-3.13,1.24c-.8.83-1.19,1.9-1.19,3.22h-1.57c0-1.08.24-2.07.73-2.95.49-.89,1.18-1.58,2.08-2.09.9-.5,1.93-.76,3.08-.76,1.76,0,3.13.46,4.12,1.38.99.92,1.48,2.18,1.48,3.77,0,.9-.28,1.88-.84,2.94s-1.54,2.39-2.95,3.98l-5.35,6.05h10.09v1.33Z"/>
    <path class="cls-13" d="M279.66,104.96h-12.02v-1.21l6.58-7.46c1.09-1.26,1.85-2.29,2.27-3.11s.63-1.61.63-2.39c0-1.21-.36-2.17-1.07-2.88-.71-.71-1.69-1.06-2.94-1.06s-2.34.41-3.13,1.24c-.8.83-1.19,1.9-1.19,3.22h-1.57c0-1.08.24-2.07.73-2.95.49-.89,1.18-1.58,2.08-2.09.9-.5,1.93-.76,3.08-.76,1.76,0,3.13.46,4.12,1.38.99.92,1.48,2.18,1.48,3.77,0,.9-.28,1.88-.84,2.94s-1.54,2.39-2.95,3.98l-5.35,6.05h10.09v1.33Z"/>
    <path class="cls-13" d="M282.83,104.01c0-.31.1-.57.3-.78.2-.22.47-.32.82-.32s.63.11.83.32c.2.21.3.48.3.78s-.1.56-.3.76c-.2.2-.48.3-.83.3s-.63-.1-.82-.3-.3-.45-.3-.76Z"/>
    <path class="cls-13" d="M292.46,94.51h1.63c.91,0,1.7-.16,2.37-.48.68-.32,1.19-.76,1.55-1.32.36-.56.53-1.2.53-1.93,0-1.23-.35-2.19-1.04-2.89s-1.69-1.04-2.99-1.04c-1.23,0-2.24.36-3.03,1.09-.79.72-1.18,1.68-1.18,2.87h-1.58c0-.99.25-1.9.75-2.72.5-.82,1.2-1.46,2.08-1.91.89-.45,1.87-.67,2.95-.67,1.74,0,3.11.47,4.11,1.42s1.5,2.25,1.5,3.9c0,.92-.29,1.77-.88,2.55-.58.78-1.39,1.36-2.41,1.75,1.2.33,2.1.91,2.72,1.72.62.81.92,1.78.92,2.91,0,1.64-.54,2.97-1.61,3.97s-2.5,1.5-4.3,1.5c-1.14,0-2.19-.23-3.14-.69s-1.69-1.1-2.21-1.92c-.52-.82-.78-1.78-.78-2.87h1.58c0,1.22.43,2.22,1.28,2.99.85.77,1.95,1.15,3.28,1.15s2.42-.35,3.18-1.05c.76-.7,1.14-1.71,1.14-3.04s-.41-2.26-1.23-2.94c-.82-.68-2.03-1.01-3.63-1.01h-1.58v-1.35Z"/>
    <path class="cls-13" d="M315.72,101.47c0,1.11-.25,1.99-.74,2.65-.49.65-1.15.98-1.98.98-.99,0-1.74-.37-2.25-1.11l-.03.98h-.74v-10.12h.78v4.03c.5-.78,1.24-1.17,2.23-1.17.84,0,1.51.32,2,.96.49.64.73,1.54.73,2.69v.12ZM314.93,101.33c0-.94-.18-1.67-.55-2.18s-.88-.77-1.54-.77c-.51,0-.93.12-1.29.37s-.62.61-.8,1.09v3.22c.4.9,1.09,1.34,2.1,1.34.65,0,1.16-.26,1.53-.77.37-.51.55-1.28.55-2.31Z"/>
    <path class="cls-13" d="M318.19,97.83l.03,1.22c.27-.44.6-.77,1-1s.84-.35,1.32-.35c.76,0,1.33.21,1.71.65s.56,1.08.57,1.94v4.68h-.78v-4.69c0-.64-.14-1.11-.41-1.42-.27-.31-.69-.47-1.28-.47-.49,0-.92.15-1.3.46-.38.3-.65.72-.83,1.24v4.88h-.78v-7.13h.75Z"/>
    <path class="cls-13" d="M324.81,104.49c0-.15.05-.28.15-.39.1-.11.24-.16.41-.16s.31.05.42.16c.1.11.15.24.15.39s-.05.28-.15.38c-.1.1-.24.15-.42.15s-.31-.05-.41-.15c-.1-.1-.15-.22-.15-.38Z"/>
  </g>
  <g>
    <path class="cls-12" d="M339.81,64.41h-4.17l-.79,2.38h-2.53l4.3-11.55h2.21l4.32,11.55h-2.53l-.8-2.38ZM336.28,62.48h2.89l-1.45-4.32-1.44,4.32Z"/>
    <path class="cls-12" d="M346.5,58.21l.07.96c.61-.75,1.43-1.12,2.47-1.12,1.11,0,1.86.44,2.28,1.31.6-.87,1.46-1.31,2.58-1.31.93,0,1.62.27,2.08.81s.68,1.36.68,2.45v5.48h-2.3v-5.47c0-.49-.1-.84-.29-1.07s-.53-.34-1.01-.34c-.69,0-1.16.33-1.43.98v5.9s-2.29,0-2.29,0v-5.47c0-.5-.1-.86-.29-1.08-.2-.22-.53-.33-1-.33-.65,0-1.12.27-1.41.81v6.07h-2.29v-8.58h2.15Z"/>
    <path class="cls-12" d="M362.47,66.95c-1.26,0-2.28-.39-3.07-1.16-.79-.77-1.19-1.8-1.19-3.09v-.22c0-.86.17-1.63.5-2.31.33-.68.81-1.2,1.42-1.57.61-.37,1.31-.55,2.09-.55,1.17,0,2.1.37,2.77,1.11.67.74,1.01,1.79,1.01,3.15v.94h-5.47c.07.56.3,1.01.67,1.35.37.34.85.51,1.42.51.88,0,1.57-.32,2.07-.96l1.13,1.26c-.34.49-.81.87-1.4,1.14-.59.27-1.24.41-1.95.41ZM362.21,59.9c-.46,0-.82.15-1.11.46-.28.31-.46.75-.54,1.32h3.19v-.18c-.01-.51-.15-.91-.41-1.18-.26-.28-.64-.42-1.13-.42Z"/>
    <path class="cls-12" d="M372.38,60.36c-.31-.04-.59-.06-.83-.06-.87,0-1.44.29-1.71.88v5.62h-2.29v-8.58h2.17l.06,1.02c.46-.79,1.1-1.18,1.91-1.18.25,0,.49.04.71.1l-.03,2.21Z"/>
    <path class="cls-12" d="M373.55,55.99c0-.34.12-.63.35-.85.23-.22.54-.33.94-.33s.7.11.94.33c.23.22.35.51.35.85s-.12.63-.35.86c-.24.22-.55.33-.93.33s-.7-.11-.93-.33c-.24-.22-.35-.51-.35-.86ZM375.99,66.79h-2.3v-8.58h2.3v8.58Z"/>
    <path class="cls-12" d="M381.52,65.1c.42,0,.77-.12,1.03-.35.26-.23.4-.54.41-.93h2.15c0,.58-.16,1.12-.48,1.6-.31.48-.74.86-1.28,1.13-.54.27-1.14.4-1.8.4-1.23,0-2.2-.39-2.9-1.17s-1.06-1.86-1.06-3.23v-.15c0-1.32.35-2.38,1.06-3.17.7-.79,1.67-1.18,2.9-1.18,1.07,0,1.93.31,2.58.92.65.61.98,1.42.99,2.44h-2.15c-.01-.45-.15-.81-.41-1.09-.26-.28-.61-.42-1.05-.42-.53,0-.94.2-1.21.58-.27.39-.41,1.02-.41,1.9v.24c0,.88.13,1.52.4,1.91.27.39.68.58,1.23.58Z"/>
    <path class="cls-12" d="M391.59,66.79c-.11-.21-.18-.46-.23-.77-.56.62-1.28.93-2.17.93-.84,0-1.54-.24-2.09-.73s-.83-1.1-.83-1.84c0-.91.34-1.61,1.01-2.09s1.65-.73,2.92-.74h1.06v-.49c0-.4-.1-.71-.31-.95-.2-.24-.53-.36-.96-.36-.39,0-.69.09-.91.28-.22.19-.33.44-.33.76h-2.29c0-.5.15-.96.46-1.38.31-.42.74-.76,1.3-1,.56-.24,1.19-.36,1.89-.36,1.06,0,1.9.27,2.52.8.62.53.93,1.28.93,2.24v3.72c0,.81.12,1.43.34,1.85v.13h-2.32ZM389.69,65.2c.34,0,.65-.08.94-.23.29-.15.5-.35.63-.61v-1.48h-.86c-1.15,0-1.76.4-1.83,1.19v.13c0,.29.09.52.29.71.2.19.48.28.83.28Z"/>
    <path class="cls-12" d="M400.07,64.42c0-.28-.14-.5-.42-.66s-.72-.31-1.34-.43c-2.04-.43-3.06-1.3-3.06-2.6,0-.76.32-1.4.95-1.91.63-.51,1.46-.77,2.48-.77,1.09,0,1.96.26,2.61.77.65.51.98,1.18.98,2h-2.29c0-.33-.11-.6-.32-.81-.21-.21-.54-.32-.99-.32-.39,0-.69.09-.9.26s-.32.4-.32.67c0,.25.12.46.36.61.24.16.65.29,1.22.41.57.11,1.05.24,1.44.38,1.21.44,1.82,1.21,1.82,2.31,0,.78-.34,1.42-1.01,1.9-.67.48-1.54.73-2.6.73-.72,0-1.36-.13-1.92-.38-.56-.26-1-.61-1.31-1.05s-.48-.93-.48-1.45h2.17c.02.41.17.72.45.94.28.22.66.33,1.13.33.44,0,.77-.08,1-.25.22-.17.34-.38.34-.65Z"/>
  </g>
  <g>
    <path class="cls-12" d="M230.76,48.19v6.55c0,.65-.15,1.21-.43,1.69-.28.48-.68.85-1.19,1.1-.51.26-1.1.39-1.76.39-1.01,0-1.82-.28-2.43-.83-.61-.55-.92-1.32-.95-2.29v-6.61h.8v6.49c0,.81.23,1.44.69,1.88.46.45,1.09.67,1.88.67s1.42-.22,1.88-.67c.46-.45.69-1.07.69-1.87v-6.5h.82Z"/>
    <path class="cls-12" d="M238.53,55.43c0-.53-.19-.95-.56-1.26s-1.06-.6-2.05-.88c-.99-.28-1.72-.58-2.18-.91-.65-.47-.98-1.08-.98-1.83s.3-1.33.91-1.79c.6-.46,1.38-.69,2.32-.69.64,0,1.21.12,1.71.37.5.25.89.59,1.17,1.03s.42.93.42,1.47h-.82c0-.66-.22-1.18-.67-1.58-.45-.4-1.05-.6-1.81-.6s-1.32.16-1.75.49c-.44.33-.65.76-.65,1.28,0,.49.2.89.59,1.19.39.31,1.02.58,1.88.82s1.51.48,1.96.73c.44.25.78.55,1,.91.22.35.34.77.34,1.25,0,.76-.3,1.36-.91,1.82-.6.46-1.4.69-2.39.69-.68,0-1.3-.12-1.86-.36-.56-.24-.99-.58-1.29-1.02-.29-.43-.44-.93-.44-1.5h.81c0,.68.25,1.21.76,1.6.51.39,1.18.59,2.02.59.75,0,1.35-.17,1.8-.49.45-.33.68-.77.68-1.31Z"/>
    <path class="cls-12" d="M246.06,55.43c0-.49-.16-.89-.47-1.2-.32-.31-.88-.6-1.67-.88-.99-.31-1.69-.68-2.09-1.11s-.6-.98-.6-1.66c0-.72.22-1.3.66-1.74.44-.45,1.04-.7,1.79-.76v-1.33h.67v1.33c.77.07,1.37.36,1.8.87.42.51.64,1.2.64,2.07h-.78c0-.69-.18-1.24-.54-1.64-.36-.41-.85-.61-1.47-.61s-1.11.16-1.46.49c-.35.33-.52.77-.52,1.31s.16.94.48,1.24.87.58,1.64.84c.77.26,1.33.51,1.68.75.35.24.61.52.78.85.17.33.26.72.26,1.18,0,.72-.23,1.3-.68,1.74-.45.44-1.07.69-1.86.75v1.25h-.67v-1.25c-.88-.06-1.57-.33-2.05-.83-.48-.5-.73-1.18-.73-2.05h.79c0,.69.2,1.22.6,1.61s.96.58,1.67.58c.62,0,1.13-.17,1.53-.5.39-.33.59-.77.59-1.3Z"/>
    <path class="cls-12" d="M262.52,60.61h2.99v1.33h-2.99v4.85h-1.58v-4.85h-9.03v-.9l8.89-13.45h1.73v13.01ZM253.84,60.61h7.09v-10.97l-.7,1.21-6.39,9.76Z"/>
    <path class="cls-12" d="M269.15,56.96l.94-9.36h9.6v1.46h-8.24l-.67,6.49c1.03-.7,2.23-1.05,3.61-1.05,1.73,0,3.11.56,4.14,1.69,1.03,1.13,1.54,2.62,1.54,4.5,0,2.02-.5,3.59-1.5,4.71s-2.41,1.67-4.23,1.67c-1.67,0-3.02-.47-4.06-1.4s-1.63-2.24-1.78-3.92h1.52c.15,1.31.59,2.3,1.33,2.97.74.67,1.74,1.01,2.99,1.01,1.37,0,2.41-.43,3.1-1.3.7-.87,1.05-2.11,1.05-3.72,0-1.41-.39-2.55-1.17-3.44s-1.85-1.33-3.2-1.33c-.75,0-1.4.09-1.95.28-.55.19-1.14.56-1.75,1.1l-1.25-.36Z"/>
    <path class="cls-12" d="M283.18,65.84c0-.31.1-.57.3-.78.2-.22.47-.32.82-.32s.63.11.83.32c.2.21.3.48.3.78s-.1.56-.3.76c-.2.2-.48.3-.83.3s-.63-.1-.82-.3-.3-.45-.3-.76Z"/>
    <path class="cls-12" d="M298.64,60.61h2.99v1.33h-2.99v4.85h-1.58v-4.85h-9.03v-.9l8.89-13.45h1.73v13.01ZM289.97,60.61h7.09v-10.97l-.7,1.21-6.39,9.76Z"/>
    <path class="cls-12" d="M315.72,63.3c0,1.11-.25,1.99-.74,2.65-.49.65-1.15.98-1.98.98-.99,0-1.74-.37-2.25-1.11l-.03.98h-.74v-10.12h.78v4.03c.5-.78,1.24-1.17,2.23-1.17.84,0,1.51.32,2,.96.49.64.73,1.54.73,2.69v.12ZM314.93,63.16c0-.94-.18-1.67-.55-2.18s-.88-.77-1.54-.77c-.51,0-.93.12-1.29.37s-.62.61-.8,1.09v3.22c.4.9,1.09,1.34,2.1,1.34.65,0,1.16-.26,1.53-.77.37-.51.55-1.28.55-2.31Z"/>
    <path class="cls-12" d="M318.19,59.66l.03,1.22c.27-.44.6-.77,1-1s.84-.35,1.32-.35c.76,0,1.33.21,1.71.65s.56,1.08.57,1.94v4.68h-.78v-4.69c0-.64-.14-1.11-.41-1.42-.27-.31-.69-.47-1.28-.47-.49,0-.92.15-1.3.46-.38.3-.65.72-.83,1.24v4.88h-.78v-7.13h.75Z"/>
    <path class="cls-12" d="M324.81,66.32c0-.15.05-.28.15-.39.1-.11.24-.16.41-.16s.31.05.42.16c.1.11.15.24.15.39s-.05.28-.15.38c-.1.1-.24.15-.42.15s-.31-.05-.41-.15c-.1-.1-.15-.22-.15-.38Z"/>
  </g>
  <g>
    <line class="cls-7" x1="169.67" y1="54.13" x2="169.68" y2="54.13"/>
    <line class="cls-10" x1="171.7" y1="54.13" x2="209.41" y2="54.13"/>
    <line class="cls-7" x1="210.42" y1="54.13" x2="210.43" y2="54.13"/>
  </g>
  <g>
    <line class="cls-7" x1="169.67" y1="89.52" x2="169.68" y2="89.52"/>
    <line class="cls-10" x1="171.7" y1="89.52" x2="209.41" y2="89.52"/>
    <line class="cls-7" x1="210.42" y1="89.52" x2="210.43" y2="89.52"/>
  </g>
  <g>
    <path d="M119.77,204.77c-.12,1.72-.76,3.08-1.91,4.06-1.15.99-2.66,1.48-4.53,1.48-2.05,0-3.66-.69-4.84-2.07-1.18-1.38-1.76-3.28-1.76-5.69v-.98c0-1.54.27-2.89.81-4.06s1.32-2.07,2.32-2.7c1.01-.63,2.18-.94,3.51-.94,1.85,0,3.33.49,4.46,1.48,1.13.99,1.78,2.38,1.96,4.16h-3.3c-.08-1.03-.37-1.78-.86-2.25-.49-.46-1.25-.7-2.26-.7-1.1,0-1.92.39-2.47,1.18-.55.79-.83,2.01-.84,3.66v1.21c0,1.73.26,2.99.79,3.79.52.8,1.35,1.2,2.48,1.2,1.02,0,1.78-.23,2.28-.7.5-.46.79-1.18.86-2.16h3.3Z"/>
    <path d="M126.21,210.09h-3.19v-16.88h3.19v16.88Z"/>
    <path d="M129.76,195.13c0-.48.16-.87.48-1.18.32-.31.75-.46,1.3-.46s.97.15,1.3.46.48.7.48,1.18-.16.88-.49,1.19c-.33.31-.76.46-1.29.46s-.97-.15-1.29-.46c-.33-.31-.49-.7-.49-1.19ZM133.14,210.09h-3.19v-11.89h3.19v11.89Z"/>
    <path d="M142.15,210.31c-1.74,0-3.16-.53-4.26-1.6-1.1-1.07-1.64-2.49-1.64-4.27v-.31c0-1.19.23-2.26.69-3.2.46-.94,1.11-1.67,1.96-2.18.85-.51,1.81-.76,2.89-.76,1.63,0,2.91.51,3.84,1.54.93,1.03,1.4,2.48,1.4,4.36v1.3h-7.57c.1.78.41,1.4.93,1.87.52.47,1.17.7,1.96.7,1.22,0,2.18-.44,2.87-1.33l1.56,1.75c-.48.67-1.12,1.2-1.93,1.58-.81.38-1.71.57-2.7.57ZM141.79,200.55c-.63,0-1.14.21-1.53.64-.39.43-.64,1.04-.75,1.83h4.42v-.25c-.01-.71-.21-1.25-.57-1.64-.37-.39-.89-.58-1.56-.58Z"/>
    <path d="M153.01,198.21l.1,1.37c.85-1.06,1.99-1.59,3.42-1.59,1.26,0,2.2.37,2.81,1.11.62.74.93,1.85.95,3.32v7.68h-3.18v-7.6c0-.67-.15-1.16-.44-1.47s-.78-.46-1.46-.46c-.89,0-1.56.38-2.01,1.14v8.38h-3.18v-11.89h2.99Z"/>
    <path d="M167.56,195.28v2.92h2.03v2.33h-2.03v5.93c0,.44.08.75.25.94s.49.29.97.29c.35,0,.66-.03.93-.08v2.41c-.62.19-1.26.29-1.92.29-2.23,0-3.36-1.12-3.41-3.37v-6.41h-1.74v-2.33h1.74v-2.92h3.17Z"/>
    <path d="M188.46,206.8h-5.78l-1.1,3.3h-3.5l5.95-16h3.05l5.99,16h-3.5l-1.11-3.3ZM183.57,204.13h4l-2.01-5.99-1.99,5.99Z"/>
    <path d="M207.3,194.1v10.54c0,1.75-.55,3.13-1.64,4.15-1.09,1.02-2.59,1.53-4.49,1.53s-3.35-.49-4.45-1.48c-1.1-.99-1.66-2.35-1.68-4.08v-10.66h3.3v10.56c0,1.05.25,1.81.75,2.29.5.48,1.2.72,2.08.72,1.85,0,2.79-.97,2.82-2.92v-10.65h3.31Z"/>
    <path d="M215.63,194.1l4.11,11.6,4.09-11.6h4.33v16h-3.31v-4.37l.33-7.55-4.32,11.92h-2.26l-4.31-11.91.33,7.54v4.37h-3.3v-16h4.31Z"/>
    <path d="M116.72,236.34v-16h4.72c1.71,0,3.01.35,3.9,1.06.89.71,1.33,1.75,1.33,3.13,0,.83-.23,1.55-.68,2.16-.45.61-1.07,1.05-1.85,1.31.93.21,1.68.66,2.25,1.37.57.71.85,1.53.85,2.46,0,1.41-.46,2.52-1.37,3.31-.91.79-2.18,1.19-3.81,1.19h-5.35ZM118.07,227.52h3.69c1.13-.02,2-.29,2.62-.8.62-.51.93-1.25.93-2.23,0-1.03-.32-1.79-.96-2.27-.64-.49-1.61-.73-2.91-.73h-3.37v6.03ZM118.07,228.66v6.54h4.05c1.16,0,2.07-.29,2.75-.88.68-.59,1.02-1.41,1.02-2.45,0-.99-.32-1.77-.97-2.34-.65-.57-1.54-.86-2.69-.86h-4.16Z"/>
    <path d="M135.12,234.45l3.47-10h1.42l-5.08,13.91-.26.62c-.65,1.44-1.66,2.16-3.02,2.16-.32,0-.65-.05-1.01-.15v-1.09s.67.07.67.07c.64,0,1.17-.16,1.57-.48.4-.32.74-.87,1.02-1.64l.58-1.6-4.48-11.79h1.44l3.69,10Z"/>
    <path d="M156.05,229.68h-4.65v6.67h-1.36v-16h5.2c1.71,0,3.04.41,4,1.24.96.83,1.44,1.98,1.44,3.47,0,1.02-.3,1.93-.9,2.71-.6.78-1.41,1.32-2.42,1.62l4,6.81v.14h-1.44l-3.87-6.67ZM151.4,228.53h4.14c1.14,0,2.05-.32,2.74-.97.69-.65,1.03-1.48,1.03-2.51,0-1.13-.36-2.01-1.08-2.63-.72-.62-1.73-.94-3.02-.94h-3.81v7.04Z"/>
    <path d="M169.28,236.56c-1.01,0-1.92-.25-2.74-.75-.82-.5-1.45-1.19-1.91-2.08s-.68-1.89-.68-2.99v-.47c0-1.14.22-2.17.66-3.09.44-.92,1.06-1.64,1.85-2.16s1.65-.79,2.57-.79c1.44,0,2.59.49,3.43,1.48.85.98,1.27,2.33,1.27,4.04v.74h-8.48v.25c0,1.35.39,2.47,1.16,3.37.77.9,1.75,1.35,2.92,1.35.7,0,1.32-.13,1.86-.38.54-.26,1.03-.67,1.47-1.23l.82.63c-.97,1.4-2.37,2.1-4.21,2.1ZM169.04,225.36c-.99,0-1.82.36-2.5,1.09-.68.72-1.09,1.7-1.24,2.92h7.13v-.14c-.04-1.14-.36-2.07-.98-2.79-.62-.72-1.42-1.08-2.42-1.08Z"/>
    <path d="M176.8,230.29c0-1.86.41-3.33,1.24-4.42.82-1.09,1.94-1.63,3.36-1.63,1.62,0,2.85.65,3.69,1.93l.07-1.71h1.23v11.64c0,1.53-.43,2.74-1.29,3.64-.86.89-2.02,1.34-3.48,1.34-.83,0-1.62-.19-2.37-.55-.75-.37-1.34-.86-1.77-1.48l.74-.79c.93,1.14,2.04,1.71,3.32,1.71,1.1,0,1.96-.32,2.57-.97s.93-1.55.96-2.7v-1.49c-.84,1.17-2.07,1.76-3.68,1.76-1.38,0-2.48-.55-3.32-1.65-.83-1.1-1.25-2.58-1.25-4.45v-.18ZM178.13,230.52c0,1.52.3,2.71.91,3.59.61.88,1.46,1.31,2.57,1.31,1.62,0,2.76-.73,3.44-2.17v-5.53c-.31-.76-.75-1.34-1.33-1.74-.58-.4-1.27-.6-2.09-.6-1.11,0-1.97.43-2.58,1.3-.62.87-.92,2.15-.92,3.84Z"/>
    <path d="M190.52,221.02c0-.25.08-.46.24-.63.16-.17.38-.26.66-.26s.5.09.66.26c.16.17.25.38.25.63s-.08.46-.25.62c-.17.17-.39.25-.66.25s-.5-.08-.66-.25c-.16-.17-.24-.38-.24-.62ZM192.07,236.34h-1.32v-11.89h1.32v11.89Z"/>
    <path d="M195.76,230.22c0-1.14.22-2.17.66-3.09.44-.92,1.07-1.63,1.88-2.14.81-.51,1.73-.76,2.75-.76,1.58,0,2.86.56,3.85,1.67s1.47,2.58,1.47,4.41v.27c0,1.15-.22,2.18-.66,3.1-.44.92-1.07,1.63-1.87,2.13s-1.72.75-2.76.75c-1.57,0-2.85-.55-3.84-1.66-.98-1.11-1.48-2.58-1.48-4.41v-.26ZM197.08,230.59c0,1.42.37,2.59,1.1,3.5.74.91,1.7,1.37,2.9,1.37s2.15-.46,2.88-1.37c.74-.91,1.1-2.12,1.1-3.61v-.25c0-.91-.17-1.74-.5-2.49-.34-.75-.81-1.34-1.42-1.75-.61-.41-1.3-.62-2.09-.62-1.17,0-2.13.46-2.87,1.38-.74.92-1.11,2.12-1.11,3.61v.24Z"/>
    <path d="M211.3,224.46l.04,2.03c.45-.73,1-1.29,1.67-1.68s1.4-.58,2.21-.58c1.27,0,2.22.36,2.85,1.08s.94,1.79.94,3.23v7.8h-1.31v-7.81c0-1.06-.23-1.85-.68-2.37-.44-.52-1.15-.78-2.13-.78-.81,0-1.53.25-2.16.76-.63.51-1.09,1.2-1.39,2.06v8.14h-1.31v-11.89h1.25Z"/>
  </g>
  <g>
    <path class="cls-8" d="M620.38,169.65l63.18-156.37c-20.64-8.34-40.92-12.28-63.18-12.28v168.65Z"/>
    <path class="cls-8" d="M620.38,169.65l134.69-101.49c-19.28-25.59-41.8-42.87-71.51-54.87l-63.18,156.37Z"/>
    <path class="cls-8" d="M620.38,169.65l-73.93,151.58c83.71,40.83,184.68,6.07,225.51-77.65,28.5-58.43,22.23-123.5-16.89-175.42l-134.69,101.49Z"/>
    <path class="cls-3" d="M620.38,169.65V1c-93.14,0-168.65,75.51-168.65,168.65,0,66.78,34.69,122.3,94.72,151.58l73.93-151.58Z"/>
  </g>
  <circle class="cls-5" cx="620.41" cy="173.47" r="135.67" transform="translate(59.05 489.5) rotate(-45)"/>
  <g>
    <path class="cls-8" d="M620.37,173.46l50.54-125.09c-16.51-6.67-32.73-9.82-50.54-9.82v134.92Z"/>
    <path class="cls-8" d="M620.37,173.46l107.75-81.19c-15.43-20.47-33.44-34.3-57.21-43.9l-50.54,125.09Z"/>
    <path class="cls-8" d="M620.37,173.46l-63.34,119.12c65.79,34.98,147.48,10.01,182.46-55.78,25.08-47.17,20.78-101.87-11.38-144.53l-107.75,81.19Z"/>
    <path class="cls-2" d="M620.37,173.46V38.54c-74.51,0-134.92,60.4-134.92,134.92,0,52.01,25.66,94.71,71.58,119.12l63.34-119.12Z"/>
  </g>
  <circle class="cls-5" cx="620.44" cy="173.64" r="104.72" transform="translate(58.94 489.58) rotate(-45)"/>
  <g>
    <path class="cls-8" d="M620.46,173.64l38.91-96.3c-12.71-5.14-25.2-7.56-38.91-7.56v103.86Z"/>
    <path class="cls-8" d="M620.46,173.64l9.05,103.47c57.14-5,99.42-55.38,94.42-112.52-3.49-39.89-27.44-72.25-64.56-87.25l-38.91,96.3Z"/>
    <path class="cls-8" d="M620.46,173.64l-53.49-89.03c-49.17,29.54-65.08,93.35-35.53,142.52,21.18,35.25,57.11,53.56,98.08,49.97l-9.05-103.47Z"/>
    <path class="cls-4" d="M620.46,173.64v-103.86c-19.73,0-36.58,4.67-53.49,14.84l53.49,89.03Z"/>
  </g>
  <circle class="cls-5" cx="621.96" cy="173.64" r="75" transform="translate(59.38 490.65) rotate(-45)"/>
  <g>
    <path class="cls-8" d="M620.46,176.15l-36.82,66.42c36.69,20.34,82.91,7.08,103.24-29.6,20.34-36.69,7.08-82.91-29.6-103.24-11.63-6.45-23.52-9.52-36.82-9.52v75.95Z"/>
    <path class="cls-8" d="M620.46,176.15l-70.42-28.45c-14.42,35.7-.08,76.21,33.6,94.87l36.82-66.42Z"/>
    <path class="cls-8" d="M620.46,176.15l-24.73-71.81c-21.69,7.47-37.1,22.09-45.69,43.36l70.42,28.45Z"/>
    <path class="cls-1" d="M620.46,176.15v-75.95c-9.06,0-16.16,1.19-24.73,4.14l24.73,71.81Z"/>
  </g>
  <g>
    <path class="cls-8" d="M620.46,175.89l40.25-64.41c-12.24-7.65-25.82-11.54-40.25-11.54v75.95Z"/>
    <path class="cls-8" d="M620.46,175.89l-5.3,75.76c41.84,2.93,78.13-28.62,81.06-70.46,2.04-29.21-10.69-54.19-35.52-69.7l-40.25,64.41Z"/>
    <path class="cls-8" d="M620.46,175.89l-27.22-70.9c-39.16,15.03-58.72,58.96-43.69,98.12,10.78,28.08,35.6,46.45,65.6,48.54l5.3-75.76Z"/>
    <path class="cls-1" d="M620.46,175.89v-75.95c-10.02,0-17.86,1.45-27.22,5.04l27.22,70.9Z"/>
  </g>
  <circle class="cls-5" cx="618.9" cy="174.6" r="52.31" transform="translate(57.81 488.77) rotate(-45)"/>
  <g>
    <line class="cls-7" x1="619.62" y1="12.6" x2="619.63" y2="12.6"/>
    <line class="cls-11" x1="621.61" y1="12.6" x2="638.67" y2="12.6"/>
    <line class="cls-7" x1="639.67" y1="12.6" x2="639.68" y2="12.6"/>
  </g>
  <g>
    <path class="cls-14" d="M767.98,20.71h-4.57v4.72h-2.38v-11.55h7.52v1.93h-5.14v2.98h4.57v1.92Z"/>
    <path class="cls-14" d="M769.82,14.63c0-.34.11-.63.34-.85.23-.22.54-.33.94-.33s.7.11.94.33c.23.22.35.51.35.85s-.12.63-.35.86c-.24.22-.55.33-.93.33s-.7-.11-.93-.33c-.24-.22-.35-.51-.35-.86ZM772.26,25.43h-2.3v-8.58h2.3v8.58Z"/>
    <path class="cls-14" d="M777.42,19.41l1.44-2.56h2.45l-2.44,4.21,2.55,4.38h-2.46l-1.53-2.7-1.52,2.7h-2.47l2.55-4.38-2.44-4.21h2.46l1.41,2.56Z"/>
    <path class="cls-14" d="M786.12,25.59c-1.26,0-2.28-.39-3.07-1.16-.79-.77-1.19-1.8-1.19-3.09v-.22c0-.86.17-1.63.5-2.31s.81-1.2,1.42-1.57c.61-.37,1.31-.55,2.09-.55,1.17,0,2.1.37,2.77,1.11.67.74,1.01,1.79,1.01,3.15v.94h-5.47c.07.56.3,1.01.67,1.35.37.34.85.51,1.42.51.88,0,1.57-.32,2.07-.96l1.13,1.26c-.34.49-.81.87-1.4,1.14s-1.24.41-1.95.41ZM785.86,18.54c-.46,0-.82.15-1.11.46-.28.31-.46.75-.54,1.32h3.19v-.18c-.01-.51-.15-.91-.41-1.18-.26-.28-.64-.42-1.13-.42Z"/>
    <path class="cls-14" d="M790.75,21.08c0-1.34.3-2.4.9-3.2.6-.79,1.42-1.19,2.46-1.19.84,0,1.53.31,2.07.94v-4.38h2.3v12.19h-2.07l-.11-.91c-.57.71-1.31,1.07-2.21,1.07-1.01,0-1.82-.4-2.43-1.19-.61-.8-.92-1.9-.92-3.32ZM793.04,21.25c0,.81.14,1.42.42,1.85.28.43.69.64,1.22.64.71,0,1.21-.3,1.5-.9v-3.39c-.29-.6-.78-.9-1.48-.9-1.11,0-1.66.9-1.66,2.69Z"/>
    <path class="cls-14" d="M807.15,25.43h-2.38v-11.55h2.38v11.55Z"/>
    <path class="cls-14" d="M811.43,16.85l.07.99c.61-.77,1.44-1.15,2.47-1.15.91,0,1.59.27,2.03.8s.67,1.33.68,2.4v5.55h-2.29v-5.49c0-.49-.11-.84-.32-1.06-.21-.22-.56-.33-1.06-.33-.65,0-1.13.27-1.45.83v6.05h-2.29v-8.58h2.16Z"/>
    <path class="cls-14" d="M822.07,23.74c.42,0,.77-.12,1.03-.35s.4-.54.41-.93h2.15c0,.58-.16,1.12-.48,1.6-.31.48-.74.86-1.28,1.13-.54.27-1.14.4-1.8.4-1.23,0-2.2-.39-2.9-1.17s-1.06-1.86-1.06-3.23v-.15c0-1.32.35-2.38,1.06-3.17.7-.79,1.67-1.18,2.9-1.18,1.07,0,1.94.31,2.58.92.65.61.98,1.42.99,2.44h-2.15c-.01-.45-.15-.81-.41-1.09s-.61-.42-1.05-.42c-.53,0-.94.2-1.21.58-.27.39-.41,1.02-.41,1.9v.24c0,.88.13,1.52.41,1.91.27.39.68.58,1.23.58Z"/>
    <path class="cls-14" d="M826.71,21.06c0-.85.16-1.61.49-2.28.33-.67.8-1.18,1.42-1.55s1.33-.55,2.15-.55c1.16,0,2.1.35,2.84,1.06s1.14,1.67,1.23,2.89l.02.59c0,1.32-.37,2.37-1.1,3.17s-1.72,1.19-2.96,1.19-2.23-.4-2.96-1.19c-.74-.79-1.11-1.87-1.11-3.24v-.1ZM829,21.23c0,.82.15,1.44.46,1.87.31.43.75.65,1.32.65s.99-.21,1.3-.64c.31-.43.47-1.11.47-2.05,0-.8-.16-1.42-.47-1.86-.31-.44-.75-.66-1.32-.66s-.99.22-1.3.66c-.31.44-.46,1.11-.46,2.03Z"/>
    <path class="cls-14" d="M838.49,16.85l.07.96c.61-.75,1.43-1.12,2.47-1.12,1.11,0,1.86.44,2.28,1.31.6-.87,1.46-1.31,2.58-1.31.93,0,1.62.27,2.08.81s.68,1.36.68,2.45v5.48h-2.3v-5.47c0-.49-.1-.84-.29-1.07s-.53-.34-1.01-.34c-.69,0-1.16.33-1.43.98v5.9s-2.29,0-2.29,0v-5.47c0-.5-.1-.86-.29-1.08-.2-.22-.53-.33-1-.33-.65,0-1.12.27-1.41.81v6.07h-2.29v-8.58h2.15Z"/>
    <path class="cls-14" d="M854.38,25.59c-1.26,0-2.28-.39-3.07-1.16-.79-.77-1.19-1.8-1.19-3.09v-.22c0-.86.17-1.63.5-2.31s.81-1.2,1.42-1.57c.61-.37,1.31-.55,2.09-.55,1.17,0,2.1.37,2.77,1.11.67.74,1.01,1.79,1.01,3.15v.94h-5.47c.07.56.3,1.01.67,1.35.37.34.85.51,1.42.51.88,0,1.57-.32,2.07-.96l1.13,1.26c-.34.49-.81.87-1.4,1.14s-1.24.41-1.95.41ZM854.12,18.54c-.46,0-.82.15-1.11.46-.28.31-.46.75-.54,1.32h3.19v-.18c-.01-.51-.15-.91-.41-1.18-.26-.28-.64-.42-1.13-.42Z"/>
  </g>
  <g>
    <path class="cls-14" d="M654.63,6.21v6.55c0,.65-.15,1.21-.43,1.69-.28.48-.68.85-1.19,1.1s-1.1.39-1.76.39c-1.01,0-1.82-.28-2.43-.83s-.92-1.32-.95-2.29v-6.61h.8v6.49c0,.81.23,1.44.69,1.88.46.45,1.09.67,1.88.67s1.42-.22,1.88-.67c.46-.45.69-1.07.69-1.87v-6.5h.82Z"/>
    <path class="cls-14" d="M662.39,13.44c0-.53-.19-.95-.56-1.26-.37-.31-1.06-.6-2.05-.88-.99-.28-1.72-.58-2.17-.91-.65-.47-.98-1.08-.98-1.83s.3-1.33.91-1.79c.6-.46,1.38-.69,2.32-.69.64,0,1.21.12,1.71.37s.89.59,1.17,1.03.42.93.42,1.47h-.82c0-.66-.22-1.18-.67-1.58-.45-.4-1.05-.6-1.81-.6s-1.32.16-1.75.49c-.44.33-.65.76-.65,1.28,0,.49.2.89.59,1.19.39.31,1.02.58,1.88.82s1.51.48,1.96.73c.44.25.78.55,1,.91.22.35.34.77.34,1.25,0,.76-.3,1.36-.91,1.82s-1.4.69-2.39.69c-.68,0-1.3-.12-1.86-.36-.56-.24-.99-.58-1.29-1.02-.29-.43-.44-.93-.44-1.5h.81c0,.68.25,1.21.76,1.6.51.39,1.18.59,2.02.59.75,0,1.35-.17,1.8-.49.45-.33.68-.77.68-1.31Z"/>
    <path class="cls-14" d="M669.92,13.44c0-.49-.16-.89-.47-1.2-.32-.31-.88-.6-1.67-.88-.99-.31-1.69-.68-2.09-1.11-.4-.43-.6-.98-.6-1.66,0-.72.22-1.3.66-1.74.44-.45,1.04-.7,1.79-.76v-1.33h.67v1.33c.77.07,1.37.36,1.8.87s.64,1.2.64,2.07h-.79c0-.69-.18-1.24-.54-1.64s-.85-.61-1.47-.61-1.11.16-1.46.49c-.35.33-.52.77-.52,1.31s.16.94.48,1.24c.32.3.87.58,1.64.84.77.26,1.33.51,1.68.75.35.24.61.52.78.85.17.33.26.72.26,1.18,0,.72-.23,1.3-.68,1.74-.45.44-1.07.69-1.86.75v1.25h-.67v-1.25c-.88-.06-1.57-.33-2.05-.83-.48-.5-.73-1.18-.73-2.05h.79c0,.69.2,1.22.6,1.61.4.39.96.58,1.67.58.62,0,1.13-.17,1.53-.5.39-.33.59-.77.59-1.3Z"/>
    <path class="cls-14" d="M688,10.55c0,.99-.29,1.88-.87,2.67-.58.79-1.35,1.37-2.29,1.73,1.11.38,2,.99,2.66,1.83.67.84,1,1.82,1,2.93,0,1.64-.56,2.95-1.67,3.91-1.12.96-2.59,1.44-4.43,1.44s-3.34-.48-4.45-1.44c-1.11-.96-1.67-2.26-1.67-3.92,0-1.09.32-2.06.96-2.91s1.52-1.47,2.64-1.85c-.95-.37-1.71-.95-2.27-1.73-.56-.79-.84-1.68-.84-2.67,0-1.59.51-2.86,1.54-3.8,1.02-.94,2.38-1.41,4.07-1.41s3.05.47,4.08,1.42c1.03.95,1.55,2.21,1.55,3.78ZM686.92,19.73c0-1.19-.43-2.18-1.28-2.95-.85-.77-1.94-1.15-3.27-1.15s-2.41.38-3.26,1.13-1.27,1.75-1.27,2.97.41,2.2,1.23,2.92c.82.72,1.92,1.09,3.32,1.09s2.46-.36,3.28-1.08,1.24-1.7,1.24-2.93ZM686.42,10.54c0-1.1-.38-2.01-1.14-2.75-.76-.73-1.73-1.1-2.91-1.1s-2.16.35-2.91,1.06c-.74.71-1.11,1.64-1.11,2.79s.37,2.03,1.11,2.72c.74.69,1.72,1.03,2.92,1.03s2.16-.34,2.91-1.04c.75-.69,1.13-1.59,1.13-2.71Z"/>
    <path class="cls-14" d="M701.53,15.92c-.56.83-1.26,1.47-2.1,1.92-.84.45-1.74.68-2.72.68-1.09,0-2.05-.28-2.89-.84-.83-.56-1.48-1.34-1.94-2.33-.46-.99-.69-2.08-.69-3.26,0-1.27.24-2.42.73-3.45.49-1.04,1.17-1.84,2.04-2.42.88-.58,1.88-.86,3.03-.86,1.92,0,3.42.67,4.5,2.02,1.07,1.35,1.61,3.26,1.61,5.74v1.42c0,3.46-.74,6.06-2.21,7.8s-3.73,2.61-6.76,2.61h-.29v-1.37h.57c2.29-.03,4.04-.69,5.23-1.95,1.19-1.27,1.82-3.17,1.88-5.71ZM696.91,17.14c1.05,0,2-.31,2.84-.94.84-.63,1.43-1.44,1.79-2.44v-.91c0-1.95-.41-3.46-1.22-4.53-.81-1.07-1.91-1.61-3.29-1.61-1.25,0-2.27.5-3.07,1.51s-1.2,2.27-1.2,3.79.38,2.68,1.15,3.66c.77.98,1.77,1.47,3,1.47Z"/>
    <path class="cls-14" d="M705.82,23.85c0-.31.1-.57.3-.78.2-.22.47-.32.82-.32s.63.11.83.32c.2.21.3.48.3.78s-.1.56-.3.76c-.2.2-.48.3-.83.3s-.63-.1-.82-.3-.3-.45-.3-.76Z"/>
    <path class="cls-14" d="M720.83,5.46v1.37h-.18c-2.29,0-4.1.68-5.42,2.03-1.32,1.35-2.05,3.23-2.19,5.63.53-.73,1.2-1.29,2.02-1.69.82-.4,1.73-.6,2.74-.6,1.69,0,3.03.58,4.03,1.75,1,1.16,1.5,2.69,1.5,4.57,0,1.25-.23,2.37-.7,3.38s-1.13,1.78-2,2.34c-.87.56-1.86.84-2.98.84-1.84,0-3.33-.67-4.48-2-1.15-1.33-1.73-3.05-1.73-5.16v-1.58c0-3.44.78-6.1,2.35-7.98,1.56-1.88,3.78-2.84,6.66-2.88h.39ZM717.55,13.57c-1,0-1.94.3-2.8.89-.87.59-1.44,1.35-1.73,2.26v1.34c0,1.67.43,3.03,1.29,4.08.86,1.05,1.97,1.58,3.34,1.58,1.23,0,2.23-.49,2.99-1.46.76-.97,1.14-2.2,1.14-3.69s-.38-2.72-1.14-3.63c-.76-.91-1.79-1.37-3.08-1.37Z"/>
    <path class="cls-14" d="M738.29,21.31c0,1.11-.25,1.99-.74,2.65-.49.65-1.15.98-1.98.98-.99,0-1.74-.37-2.25-1.11l-.03.98h-.74v-10.12h.79v4.03c.5-.78,1.24-1.17,2.23-1.17.84,0,1.51.32,2,.96.49.64.73,1.54.73,2.69v.12ZM737.49,21.17c0-.94-.18-1.67-.55-2.18-.37-.51-.88-.77-1.54-.77-.5,0-.93.12-1.29.37s-.62.61-.8,1.09v3.22c.39.9,1.09,1.34,2.1,1.34.65,0,1.16-.26,1.53-.77.37-.51.55-1.28.55-2.31Z"/>
    <path class="cls-14" d="M740.75,17.67l.03,1.22c.27-.44.6-.77,1-1,.4-.23.84-.35,1.32-.35.76,0,1.33.21,1.71.65.37.43.56,1.08.57,1.94v4.68h-.78v-4.69c0-.64-.14-1.11-.41-1.42-.27-.31-.69-.47-1.28-.47-.49,0-.92.15-1.29.46-.38.3-.65.72-.83,1.24v4.88h-.78v-7.13h.75Z"/>
    <path class="cls-14" d="M747.38,24.33c0-.15.05-.28.15-.39.1-.11.24-.16.41-.16s.31.05.42.16c.1.11.15.24.15.39s-.05.28-.15.38c-.1.1-.24.15-.42.15s-.31-.05-.41-.15c-.1-.1-.15-.22-.15-.38Z"/>
  </g>
  <g>
    <g>
      <path class="cls-13" d="M764.14,84.59l2.97,8.38,2.95-8.38h3.13v11.55h-2.39v-3.16l.24-5.45-3.12,8.61h-1.63l-3.11-8.6.24,5.44v3.16h-2.38v-11.55h3.11Z"/>
      <path class="cls-13" d="M780.51,95.27c-.57.69-1.35,1.03-2.35,1.03-.92,0-1.62-.26-2.11-.79-.48-.53-.73-1.3-.74-2.33v-5.62h2.29v5.55c0,.89.41,1.34,1.22,1.34s1.31-.27,1.6-.81v-6.08h2.3v8.58h-2.16l-.06-.87Z"/>
      <path class="cls-13" d="M787.02,96.14h-2.3v-12.19h2.3v12.19Z"/>
      <path class="cls-13" d="M791.79,85.45v2.11h1.47v1.68h-1.47v4.29c0,.32.06.54.18.68.12.14.35.21.7.21.25,0,.48-.02.67-.06v1.74c-.45.14-.91.21-1.39.21-1.61,0-2.43-.81-2.46-2.44v-4.63h-1.25v-1.68h1.25v-2.11h2.29Z"/>
      <path class="cls-13" d="M794.6,85.34c0-.34.11-.63.34-.85.23-.22.54-.33.94-.33s.7.11.94.33c.23.22.35.51.35.85s-.12.63-.35.86c-.24.22-.55.33-.93.33s-.7-.11-.93-.33c-.24-.22-.35-.51-.35-.86ZM797.03,96.14h-2.3v-8.58h2.3v8.58Z"/>
      <path class="cls-13" d="M803.46,92.12h-4.47v-1.85h4.47v1.85Z"/>
      <path class="cls-13" d="M811.79,93.76h-4.17l-.79,2.38h-2.53l4.3-11.55h2.21l4.33,11.55h-2.53l-.8-2.38ZM808.26,91.84h2.89l-1.45-4.32-1.44,4.32Z"/>
      <path class="cls-13" d="M820.83,93.77c0-.28-.14-.5-.42-.66-.28-.16-.72-.31-1.34-.43-2.04-.43-3.06-1.3-3.06-2.6,0-.76.32-1.4.95-1.91.63-.51,1.46-.77,2.48-.77,1.09,0,1.96.26,2.61.77.65.51.98,1.18.98,2h-2.29c0-.33-.11-.6-.32-.81-.21-.21-.54-.32-.99-.32-.39,0-.68.09-.9.26s-.32.4-.32.67c0,.25.12.46.36.61.24.16.65.29,1.22.41.57.11,1.05.24,1.44.38,1.21.44,1.82,1.21,1.82,2.31,0,.78-.34,1.42-1.01,1.9s-1.54.73-2.6.73c-.72,0-1.36-.13-1.92-.38-.56-.26-1-.61-1.31-1.05-.32-.45-.48-.93-.48-1.45h2.17c.02.41.17.72.45.94s.66.33,1.13.33c.44,0,.77-.08,1-.25s.34-.38.34-.65Z"/>
      <path class="cls-13" d="M829.34,93.77c0-.28-.14-.5-.42-.66-.28-.16-.72-.31-1.34-.43-2.04-.43-3.06-1.3-3.06-2.6,0-.76.32-1.4.95-1.91.63-.51,1.46-.77,2.48-.77,1.09,0,1.96.26,2.61.77.65.51.98,1.18.98,2h-2.29c0-.33-.11-.6-.32-.81-.21-.21-.54-.32-.99-.32-.39,0-.68.09-.9.26s-.32.4-.32.67c0,.25.12.46.36.61.24.16.65.29,1.22.41.57.11,1.05.24,1.44.38,1.21.44,1.82,1.21,1.82,2.31,0,.78-.34,1.42-1.01,1.9s-1.54.73-2.6.73c-.72,0-1.36-.13-1.92-.38-.56-.26-1-.61-1.31-1.05-.32-.45-.48-.93-.48-1.45h2.17c.02.41.17.72.45.94s.66.33,1.13.33c.44,0,.77-.08,1-.25s.34-.38.34-.65Z"/>
      <path class="cls-13" d="M837.05,96.3c-1.26,0-2.28-.39-3.07-1.16-.79-.77-1.19-1.8-1.19-3.09v-.22c0-.86.17-1.63.5-2.31s.81-1.2,1.42-1.57c.61-.37,1.31-.55,2.09-.55,1.17,0,2.1.37,2.77,1.11.67.74,1.01,1.79,1.01,3.15v.94h-5.47c.07.56.3,1.01.67,1.35.37.34.85.51,1.42.51.88,0,1.57-.32,2.07-.96l1.13,1.26c-.34.49-.81.87-1.4,1.14s-1.24.41-1.95.41ZM836.78,89.25c-.46,0-.82.15-1.11.46-.28.31-.46.75-.54,1.32h3.19v-.18c-.01-.51-.15-.91-.41-1.18-.26-.28-.64-.42-1.13-.42Z"/>
      <path class="cls-13" d="M844.85,85.45v2.11h1.47v1.68h-1.47v4.29c0,.32.06.54.18.68.12.14.35.21.7.21.25,0,.48-.02.67-.06v1.74c-.45.14-.91.21-1.39.21-1.61,0-2.43-.81-2.46-2.44v-4.63h-1.25v-1.68h1.25v-2.11h2.29Z"/>
      <path class="cls-13" d="M849.29,88.64h-.88v-3.4l-1.05.33v-.72l1.84-.66h.09v4.45Z"/>
    </g>
    <g>
      <path class="cls-13" d="M653.69,77.55v6.55c0,.65-.15,1.21-.43,1.69-.28.48-.68.85-1.19,1.1s-1.1.39-1.76.39c-1.01,0-1.82-.28-2.43-.83s-.92-1.32-.95-2.29v-6.61h.8v6.49c0,.81.23,1.44.69,1.88.46.45,1.09.67,1.88.67s1.42-.22,1.88-.67c.46-.45.69-1.07.69-1.87v-6.5h.82Z"/>
      <path class="cls-13" d="M661.46,84.78c0-.53-.19-.95-.56-1.26-.37-.31-1.06-.6-2.05-.88-.99-.28-1.72-.58-2.17-.91-.65-.47-.98-1.08-.98-1.83s.3-1.33.91-1.79c.6-.46,1.38-.69,2.32-.69.64,0,1.21.12,1.71.37s.89.59,1.17,1.03.42.93.42,1.47h-.82c0-.66-.22-1.18-.67-1.58-.45-.4-1.05-.6-1.81-.6s-1.32.16-1.75.49c-.44.33-.65.76-.65,1.28,0,.49.2.89.59,1.19.39.31,1.02.58,1.88.82s1.51.48,1.96.73c.44.25.78.55,1,.91.22.35.34.77.34,1.25,0,.76-.3,1.36-.91,1.82s-1.4.69-2.39.69c-.68,0-1.3-.12-1.86-.36-.56-.24-.99-.58-1.29-1.02-.29-.43-.44-.93-.44-1.5h.81c0,.68.25,1.21.76,1.6.51.39,1.18.59,2.02.59.75,0,1.35-.17,1.8-.49.45-.33.68-.77.68-1.31Z"/>
      <path class="cls-13" d="M668.99,84.78c0-.49-.16-.89-.47-1.2-.32-.31-.88-.6-1.67-.88-.99-.31-1.69-.68-2.09-1.11-.4-.43-.6-.98-.6-1.66,0-.72.22-1.3.66-1.74.44-.45,1.04-.7,1.79-.76v-1.33h.67v1.33c.77.07,1.37.36,1.8.87s.64,1.2.64,2.07h-.79c0-.69-.18-1.24-.54-1.64s-.85-.61-1.47-.61-1.11.16-1.46.49c-.35.33-.52.77-.52,1.31s.16.94.48,1.24c.32.3.87.58,1.64.84.77.26,1.33.51,1.68.75.35.24.61.52.78.85.17.33.26.72.26,1.18,0,.72-.23,1.3-.68,1.74-.45.44-1.07.69-1.86.75v1.25h-.67v-1.25c-.88-.06-1.57-.33-2.05-.83-.48-.5-.73-1.18-.73-2.05h.79c0,.69.2,1.22.6,1.61.4.39.96.58,1.67.58.62,0,1.13-.17,1.53-.5.39-.33.59-.77.59-1.3Z"/>
      <path class="cls-13" d="M683.1,96.14h-1.58v-17.3l-5.22,1.94v-1.48l6.54-2.43h.26v19.26Z"/>
      <path class="cls-13" d="M700.28,81.89c0,.99-.29,1.88-.87,2.67-.58.79-1.35,1.37-2.29,1.73,1.11.38,2,.99,2.66,1.83.67.84,1,1.82,1,2.93,0,1.64-.56,2.95-1.67,3.91-1.12.96-2.59,1.44-4.43,1.44s-3.34-.48-4.45-1.44c-1.11-.96-1.67-2.26-1.67-3.92,0-1.09.32-2.06.96-2.91s1.52-1.47,2.64-1.85c-.95-.37-1.71-.95-2.27-1.73-.56-.79-.84-1.68-.84-2.67,0-1.59.51-2.86,1.54-3.8,1.02-.94,2.38-1.41,4.07-1.41s3.05.47,4.08,1.42c1.03.95,1.55,2.21,1.55,3.78ZM699.2,91.07c0-1.19-.43-2.18-1.28-2.95-.85-.77-1.94-1.15-3.27-1.15s-2.41.38-3.26,1.13-1.27,1.75-1.27,2.97.41,2.2,1.23,2.92c.82.72,1.92,1.09,3.32,1.09s2.46-.36,3.28-1.08,1.24-1.7,1.24-2.93ZM698.69,81.88c0-1.1-.38-2.01-1.14-2.75-.76-.73-1.73-1.1-2.91-1.1s-2.16.35-2.91,1.06c-.74.71-1.11,1.64-1.11,2.79s.37,2.03,1.11,2.72c.74.69,1.72,1.03,2.92,1.03s2.16-.34,2.91-1.04c.75-.69,1.13-1.59,1.13-2.71Z"/>
      <path class="cls-13" d="M704.05,95.19c0-.31.1-.57.3-.78.2-.22.47-.32.82-.32s.63.11.83.32c.2.21.3.48.3.78s-.1.56-.3.76c-.2.2-.48.3-.83.3s-.63-.1-.82-.3-.3-.45-.3-.76Z"/>
      <path class="cls-13" d="M721.4,88.14c0,2.71-.5,4.76-1.49,6.16-.99,1.4-2.46,2.1-4.39,2.1s-3.35-.69-4.36-2.06c-1.01-1.38-1.53-3.38-1.56-6v-3.44c0-2.7.5-4.74,1.5-6.13s2.47-2.08,4.39-2.08,3.35.67,4.35,2.01c1,1.34,1.52,3.32,1.55,5.93v3.52ZM719.81,84.7c0-2.2-.36-3.86-1.07-4.98-.72-1.12-1.8-1.69-3.25-1.69s-2.5.55-3.22,1.65c-.72,1.1-1.09,2.72-1.11,4.87v3.77c0,2.19.37,3.86,1.11,5.02.74,1.16,1.82,1.74,3.24,1.74s2.47-.57,3.2-1.7c.73-1.13,1.09-2.79,1.1-4.98v-3.69Z"/>
      <path class="cls-13" d="M736.58,92.65c0,1.11-.25,1.99-.74,2.65-.49.65-1.15.98-1.98.98-.99,0-1.74-.37-2.25-1.11l-.03.98h-.74v-10.12h.79v4.03c.5-.78,1.24-1.17,2.23-1.17.84,0,1.51.32,2,.96.49.64.73,1.54.73,2.69v.12ZM735.79,92.51c0-.94-.18-1.67-.55-2.18-.37-.51-.88-.77-1.54-.77-.5,0-.93.12-1.29.37s-.62.61-.8,1.09v3.22c.39.9,1.09,1.34,2.1,1.34.65,0,1.16-.26,1.53-.77.37-.51.55-1.28.55-2.31Z"/>
      <path class="cls-13" d="M739.05,89.01l.03,1.22c.27-.44.6-.77,1-1,.4-.23.84-.35,1.32-.35.76,0,1.33.21,1.71.65.37.43.56,1.08.57,1.94v4.68h-.78v-4.69c0-.64-.14-1.11-.41-1.42-.27-.31-.69-.47-1.28-.47-.49,0-.92.15-1.29.46-.38.3-.65.72-.83,1.24v4.88h-.78v-7.13h.75Z"/>
      <path class="cls-13" d="M745.68,95.67c0-.15.05-.28.15-.39.1-.11.24-.16.41-.16s.31.05.42.16c.1.11.15.24.15.39s-.05.28-.15.38c-.1.1-.24.15-.42.15s-.31-.05-.41-.15c-.1-.1-.15-.22-.15-.38Z"/>
    </g>
  </g>
  <g>
    <g>
      <path class="cls-12" d="M767.98,54.84h-4.57v3.09h5.36v1.91h-7.74v-11.55h7.73v1.93h-5.35v2.75h4.57v1.86Z"/>
      <path class="cls-12" d="M769.82,55.48c0-1.35.3-2.42.9-3.2.6-.78,1.42-1.17,2.47-1.17.92,0,1.65.35,2.2,1.06l.15-.9h2.02v11.89h-2.3v-4.04c-.53.6-1.22.9-2.08.9-1.02,0-1.84-.4-2.44-1.19-.61-.79-.91-1.91-.91-3.34ZM772.11,55.64c0,.82.14,1.45.43,1.88.29.43.69.64,1.22.64.7,0,1.2-.28,1.49-.84v-3.55c-.29-.54-.78-.81-1.48-.81-.53,0-.94.21-1.23.64-.29.43-.44,1.11-.44,2.04Z"/>
      <path class="cls-12" d="M784.69,58.98c-.57.69-1.35,1.03-2.35,1.03-.92,0-1.62-.26-2.11-.79-.48-.53-.73-1.3-.74-2.33v-5.62h2.29v5.55c0,.89.41,1.34,1.22,1.34s1.31-.27,1.6-.81v-6.08h2.3v8.58h-2.16l-.06-.87Z"/>
      <path class="cls-12" d="M788.78,49.04c0-.34.11-.63.34-.85.23-.22.54-.33.94-.33s.7.11.94.33c.23.22.35.51.35.85s-.12.63-.35.86c-.24.22-.55.33-.93.33s-.7-.11-.93-.33c-.24-.22-.35-.51-.35-.86ZM791.21,59.85h-2.3v-8.58h2.3v8.58Z"/>
      <path class="cls-12" d="M795.98,49.15v2.11h1.47v1.68h-1.47v4.29c0,.32.06.54.18.68.12.14.35.21.7.21.25,0,.48-.02.67-.06v1.74c-.45.14-.91.21-1.39.21-1.61,0-2.43-.81-2.46-2.44v-4.63h-1.25v-1.68h1.25v-2.11h2.29Z"/>
      <path class="cls-12" d="M798.79,49.04c0-.34.11-.63.34-.85.23-.22.54-.33.94-.33s.7.11.94.33c.23.22.35.51.35.85s-.12.63-.35.86c-.24.22-.55.33-.93.33s-.7-.11-.93-.33c-.24-.22-.35-.51-.35-.86ZM801.23,59.85h-2.3v-8.58h2.3v8.58Z"/>
      <path class="cls-12" d="M807.12,60.01c-1.26,0-2.28-.39-3.07-1.16-.79-.77-1.19-1.8-1.19-3.09v-.22c0-.86.17-1.63.5-2.31s.81-1.2,1.42-1.57c.61-.37,1.31-.55,2.09-.55,1.17,0,2.1.37,2.77,1.11.67.74,1.01,1.79,1.01,3.15v.94h-5.47c.07.56.3,1.01.67,1.35.37.34.85.51,1.42.51.88,0,1.57-.32,2.07-.96l1.13,1.26c-.34.49-.81.87-1.4,1.14s-1.24.41-1.95.41ZM806.85,52.95c-.46,0-.82.15-1.11.46-.28.31-.46.75-.54,1.32h3.19v-.18c-.01-.51-.15-.91-.41-1.18-.26-.28-.64-.42-1.13-.42Z"/>
      <path class="cls-12" d="M816.72,57.48c0-.28-.14-.5-.42-.66-.28-.16-.72-.31-1.34-.43-2.04-.43-3.06-1.3-3.06-2.6,0-.76.32-1.4.95-1.91.63-.51,1.46-.77,2.48-.77,1.09,0,1.96.26,2.61.77.65.51.98,1.18.98,2h-2.29c0-.33-.11-.6-.32-.81-.21-.21-.54-.32-.99-.32-.39,0-.68.09-.9.26s-.32.4-.32.67c0,.25.12.46.36.61.24.16.65.29,1.22.41.57.11,1.05.24,1.44.38,1.21.44,1.82,1.21,1.82,2.31,0,.78-.34,1.42-1.01,1.9s-1.54.73-2.6.73c-.72,0-1.36-.13-1.92-.38-.56-.26-1-.61-1.31-1.05-.32-.45-.48-.93-.48-1.45h2.17c.02.41.17.72.45.94s.66.33,1.13.33c.44,0,.77-.08,1-.25s.34-.38.34-.65Z"/>
    </g>
    <g>
      <path class="cls-12" d="M654.61,41.25v6.55c0,.65-.15,1.21-.43,1.69-.28.48-.68.85-1.19,1.1s-1.1.39-1.76.39c-1.01,0-1.82-.28-2.43-.83s-.92-1.32-.95-2.29v-6.61h.8v6.49c0,.81.23,1.44.69,1.88.46.45,1.09.67,1.88.67s1.42-.22,1.88-.67c.46-.45.69-1.07.69-1.87v-6.5h.82Z"/>
      <path class="cls-12" d="M662.37,48.49c0-.53-.19-.95-.56-1.26-.37-.31-1.06-.6-2.05-.88-.99-.28-1.72-.58-2.17-.91-.65-.47-.98-1.08-.98-1.83s.3-1.33.91-1.79c.6-.46,1.38-.69,2.32-.69.64,0,1.21.12,1.71.37s.89.59,1.17,1.03.42.93.42,1.47h-.82c0-.66-.22-1.18-.67-1.58-.45-.4-1.05-.6-1.81-.6s-1.32.16-1.75.49c-.44.33-.65.76-.65,1.28,0,.49.2.89.59,1.19.39.31,1.02.58,1.88.82s1.51.48,1.96.73c.44.25.78.55,1,.91.22.35.34.77.34,1.25,0,.76-.3,1.36-.91,1.82s-1.4.69-2.39.69c-.68,0-1.3-.12-1.86-.36-.56-.24-.99-.58-1.29-1.02-.29-.43-.44-.93-.44-1.5h.81c0,.68.25,1.21.76,1.6.51.39,1.18.59,2.02.59.75,0,1.35-.17,1.8-.49.45-.33.68-.77.68-1.31Z"/>
      <path class="cls-12" d="M669.9,48.48c0-.49-.16-.89-.47-1.2-.32-.31-.88-.6-1.67-.88-.99-.31-1.69-.68-2.09-1.11-.4-.43-.6-.98-.6-1.66,0-.72.22-1.3.66-1.74.44-.45,1.04-.7,1.79-.76v-1.33h.67v1.33c.77.07,1.37.36,1.8.87s.64,1.2.64,2.07h-.79c0-.69-.18-1.24-.54-1.64s-.85-.61-1.47-.61-1.11.16-1.46.49c-.35.33-.52.77-.52,1.31s.16.94.48,1.24c.32.3.87.58,1.64.84.77.26,1.33.51,1.68.75.35.24.61.52.78.85.17.33.26.72.26,1.18,0,.72-.23,1.3-.68,1.74-.45.44-1.07.69-1.86.75v1.25h-.67v-1.25c-.88-.06-1.57-.33-2.05-.83-.48-.5-.73-1.18-.73-2.05h.79c0,.69.2,1.22.6,1.61.4.39.96.58,1.67.58.62,0,1.13-.17,1.53-.5.39-.33.59-.77.59-1.3Z"/>
      <path class="cls-12" d="M687.98,45.6c0,.99-.29,1.88-.87,2.67-.58.79-1.35,1.37-2.29,1.73,1.11.38,2,.99,2.66,1.83.67.84,1,1.82,1,2.93,0,1.64-.56,2.95-1.67,3.91-1.12.96-2.59,1.44-4.43,1.44s-3.34-.48-4.45-1.44c-1.11-.96-1.67-2.26-1.67-3.92,0-1.09.32-2.06.96-2.91s1.52-1.47,2.64-1.85c-.95-.37-1.71-.95-2.27-1.73-.56-.79-.84-1.68-.84-2.67,0-1.59.51-2.86,1.54-3.8,1.02-.94,2.38-1.41,4.07-1.41s3.05.47,4.08,1.42c1.03.95,1.55,2.21,1.55,3.78ZM686.9,54.77c0-1.19-.43-2.18-1.28-2.95-.85-.77-1.94-1.15-3.27-1.15s-2.41.38-3.26,1.13-1.27,1.75-1.27,2.97.41,2.2,1.23,2.92c.82.72,1.92,1.09,3.32,1.09s2.46-.36,3.28-1.08,1.24-1.7,1.24-2.93ZM686.4,45.58c0-1.1-.38-2.01-1.14-2.75-.76-.73-1.73-1.1-2.91-1.1s-2.16.35-2.91,1.06c-.74.71-1.11,1.64-1.11,2.79s.37,2.03,1.11,2.72c.74.69,1.72,1.03,2.92,1.03s2.16-.34,2.91-1.04c.75-.69,1.13-1.59,1.13-2.71Z"/>
      <path class="cls-12" d="M703.22,45.6c0,.99-.29,1.88-.87,2.67-.58.79-1.35,1.37-2.29,1.73,1.11.38,2,.99,2.66,1.83.67.84,1,1.82,1,2.93,0,1.64-.56,2.95-1.67,3.91-1.12.96-2.59,1.44-4.43,1.44s-3.34-.48-4.45-1.44c-1.11-.96-1.67-2.26-1.67-3.92,0-1.09.32-2.06.96-2.91s1.52-1.47,2.64-1.85c-.95-.37-1.71-.95-2.27-1.73-.56-.79-.84-1.68-.84-2.67,0-1.59.51-2.86,1.54-3.8,1.02-.94,2.38-1.41,4.07-1.41s3.05.47,4.08,1.42c1.03.95,1.55,2.21,1.55,3.78ZM702.14,54.77c0-1.19-.43-2.18-1.28-2.95-.85-.77-1.94-1.15-3.27-1.15s-2.41.38-3.26,1.13-1.27,1.75-1.27,2.97.41,2.2,1.23,2.92c.82.72,1.92,1.09,3.32,1.09s2.46-.36,3.28-1.08,1.24-1.7,1.24-2.93ZM701.64,45.58c0-1.1-.38-2.01-1.14-2.75-.76-.73-1.73-1.1-2.91-1.1s-2.16.35-2.91,1.06c-.74.71-1.11,1.64-1.11,2.79s.37,2.03,1.11,2.72c.74.69,1.72,1.03,2.92,1.03s2.16-.34,2.91-1.04c.75-.69,1.13-1.59,1.13-2.71Z"/>
      <path class="cls-12" d="M706.99,58.9c0-.31.1-.57.3-.78.2-.22.47-.32.82-.32s.63.11.83.32c.2.21.3.48.3.78s-.1.56-.3.76c-.2.2-.48.3-.83.3s-.63-.1-.82-.3-.3-.45-.3-.76Z"/>
      <path class="cls-12" d="M722,40.51v1.37h-.18c-2.29,0-4.1.68-5.42,2.03-1.32,1.35-2.05,3.23-2.19,5.63.53-.73,1.2-1.29,2.02-1.69.82-.4,1.73-.6,2.74-.6,1.69,0,3.03.58,4.03,1.75,1,1.16,1.5,2.69,1.5,4.57,0,1.25-.23,2.37-.7,3.38s-1.13,1.78-2,2.34c-.87.56-1.86.84-2.98.84-1.84,0-3.33-.67-4.48-2-1.15-1.33-1.73-3.05-1.73-5.16v-1.58c0-3.44.78-6.1,2.35-7.98,1.56-1.88,3.78-2.84,6.66-2.88h.39ZM718.72,48.62c-1,0-1.94.3-2.8.89-.87.59-1.44,1.35-1.73,2.26v1.34c0,1.67.43,3.03,1.29,4.08.86,1.05,1.97,1.58,3.34,1.58,1.23,0,2.23-.49,2.99-1.46.76-.97,1.14-2.2,1.14-3.69s-.38-2.72-1.14-3.63c-.76-.91-1.79-1.37-3.08-1.37Z"/>
      <path class="cls-12" d="M739.46,56.35c0,1.11-.25,1.99-.74,2.65-.49.65-1.15.98-1.98.98-.99,0-1.74-.37-2.25-1.11l-.03.98h-.74v-10.12h.79v4.03c.5-.78,1.24-1.17,2.23-1.17.84,0,1.51.32,2,.96.49.64.73,1.54.73,2.69v.12ZM738.66,56.22c0-.94-.18-1.67-.55-2.18-.37-.51-.88-.77-1.54-.77-.5,0-.93.12-1.29.37s-.62.61-.8,1.09v3.22c.39.9,1.09,1.34,2.1,1.34.65,0,1.16-.26,1.53-.77.37-.51.55-1.28.55-2.31Z"/>
      <path class="cls-12" d="M741.92,52.72l.03,1.22c.27-.44.6-.77,1-1,.4-.23.84-.35,1.32-.35.76,0,1.33.21,1.71.65.37.43.56,1.08.57,1.94v4.68h-.78v-4.69c0-.64-.14-1.11-.41-1.42-.27-.31-.69-.47-1.28-.47-.49,0-.92.15-1.29.46-.38.3-.65.72-.83,1.24v4.88h-.78v-7.13h.75Z"/>
      <path class="cls-12" d="M748.55,59.37c0-.15.05-.28.15-.39.1-.11.24-.16.41-.16s.31.05.42.16c.1.11.15.24.15.39s-.05.28-.15.38c-.1.1-.24.15-.42.15s-.31-.05-.41-.15c-.1-.1-.15-.22-.15-.38Z"/>
    </g>
  </g>
  <g>
    <path class="cls-6" d="M767.55,129.75h-4.17l-.79,2.38h-2.53l4.3-11.55h2.21l4.33,11.55h-2.53l-.8-2.38ZM764.02,127.82h2.89l-1.45-4.32-1.44,4.32Z"/>
    <path class="cls-6" d="M774.45,132.13h-2.3v-12.19h2.3v12.19Z"/>
    <path class="cls-6" d="M779.22,121.43v2.11h1.47v1.68h-1.47v4.29c0,.32.06.54.18.68.12.14.35.21.7.21.25,0,.48-.02.67-.06v1.74c-.45.14-.91.21-1.39.21-1.61,0-2.43-.81-2.46-2.44v-4.63h-1.25v-1.68h1.25v-2.11h2.29Z"/>
    <path class="cls-6" d="M785.91,132.29c-1.26,0-2.28-.39-3.07-1.16-.79-.77-1.19-1.8-1.19-3.09v-.22c0-.86.17-1.63.5-2.31s.81-1.2,1.42-1.57c.61-.37,1.31-.55,2.09-.55,1.17,0,2.1.37,2.77,1.11.67.74,1.01,1.79,1.01,3.15v.94h-5.47c.07.56.3,1.01.67,1.35.37.34.85.51,1.42.51.88,0,1.57-.32,2.07-.96l1.13,1.26c-.34.49-.81.87-1.4,1.14s-1.24.41-1.95.41ZM785.65,125.23c-.46,0-.82.15-1.11.46-.28.31-.46.75-.54,1.32h3.19v-.18c-.01-.51-.15-.91-.41-1.18-.26-.28-.64-.42-1.13-.42Z"/>
    <path class="cls-6" d="M795.82,125.69c-.31-.04-.59-.06-.83-.06-.87,0-1.44.29-1.71.88v5.62h-2.29v-8.58h2.17l.06,1.02c.46-.79,1.1-1.18,1.91-1.18.25,0,.49.04.71.1l-.03,2.21Z"/>
    <path class="cls-6" d="M799.19,123.54l.07.99c.61-.77,1.44-1.15,2.47-1.15.91,0,1.59.27,2.03.8s.67,1.33.68,2.4v5.55h-2.29v-5.49c0-.49-.11-.84-.32-1.06-.21-.22-.56-.33-1.06-.33-.65,0-1.13.27-1.45.83v6.05h-2.29v-8.58h2.16Z"/>
    <path class="cls-6" d="M811.29,132.13c-.11-.21-.18-.46-.23-.77-.56.62-1.28.93-2.17.93-.84,0-1.54-.24-2.09-.73-.55-.49-.83-1.1-.83-1.84,0-.91.34-1.61,1.01-2.09.67-.49,1.65-.73,2.92-.74h1.06v-.49c0-.4-.1-.71-.31-.95-.2-.24-.52-.36-.96-.36-.39,0-.69.09-.91.28-.22.19-.33.44-.33.76h-2.29c0-.5.15-.96.46-1.38.31-.42.74-.76,1.3-1s1.19-.36,1.89-.36c1.06,0,1.9.27,2.52.8.62.53.93,1.28.93,2.24v3.72c0,.81.12,1.43.34,1.85v.13h-2.32ZM809.4,130.53c.34,0,.65-.08.94-.23.29-.15.5-.35.63-.61v-1.48h-.86c-1.15,0-1.76.4-1.83,1.19v.13c0,.29.09.52.29.71.2.19.48.28.83.28Z"/>
    <path class="cls-6" d="M817.91,121.43v2.11h1.47v1.68h-1.47v4.29c0,.32.06.54.18.68.12.14.35.21.7.21.25,0,.48-.02.67-.06v1.74c-.45.14-.91.21-1.39.21-1.61,0-2.43-.81-2.46-2.44v-4.63h-1.25v-1.68h1.25v-2.11h2.29Z"/>
    <path class="cls-6" d="M820.72,121.32c0-.34.11-.63.34-.85.23-.22.54-.33.94-.33s.7.11.94.33c.23.22.35.51.35.85s-.12.63-.35.86c-.24.22-.55.33-.93.33s-.7-.11-.93-.33c-.24-.22-.35-.51-.35-.86ZM823.15,132.13h-2.3v-8.58h2.3v8.58Z"/>
    <path class="cls-6" d="M828.37,129.33l1.6-5.78h2.4l-2.9,8.58h-2.19l-2.9-8.58h2.4l1.59,5.78Z"/>
    <path class="cls-6" d="M837.14,132.29c-1.26,0-2.28-.39-3.07-1.16-.79-.77-1.19-1.8-1.19-3.09v-.22c0-.86.17-1.63.5-2.31s.81-1.2,1.42-1.57c.61-.37,1.31-.55,2.09-.55,1.17,0,2.1.37,2.77,1.11.67.74,1.01,1.79,1.01,3.15v.94h-5.47c.07.56.3,1.01.67,1.35.37.34.85.51,1.42.51.88,0,1.57-.32,2.07-.96l1.13,1.26c-.34.49-.81.87-1.4,1.14s-1.24.41-1.95.41ZM836.87,125.23c-.46,0-.82.15-1.11.46-.28.31-.46.75-.54,1.32h3.19v-.18c-.01-.51-.15-.91-.41-1.18-.26-.28-.64-.42-1.13-.42Z"/>
    <path class="cls-6" d="M763.56,154.63h-2.38v-11.55h2.38v11.55Z"/>
    <path class="cls-6" d="M767.91,146.04l.07.99c.61-.77,1.44-1.15,2.47-1.15.91,0,1.59.27,2.03.8s.67,1.33.68,2.4v5.55h-2.29v-5.49c0-.49-.11-.84-.32-1.06-.21-.22-.56-.33-1.06-.33-.65,0-1.13.27-1.45.83v6.05h-2.29v-8.58h2.16Z"/>
    <path class="cls-6" d="M778,151.83l1.6-5.78h2.4l-2.9,8.58h-2.19l-2.9-8.58h2.4l1.59,5.78Z"/>
    <path class="cls-6" d="M786.77,154.79c-1.26,0-2.28-.39-3.07-1.16-.79-.77-1.19-1.8-1.19-3.09v-.22c0-.86.17-1.63.5-2.31s.81-1.2,1.42-1.57c.61-.37,1.31-.55,2.09-.55,1.17,0,2.1.37,2.77,1.11.67.74,1.01,1.79,1.01,3.15v.94h-5.47c.07.56.3,1.01.67,1.35.37.34.85.51,1.42.51.88,0,1.57-.32,2.07-.96l1.13,1.26c-.34.49-.81.87-1.4,1.14s-1.24.41-1.95.41ZM786.5,147.73c-.46,0-.82.15-1.11.46-.28.31-.46.75-.54,1.32h3.19v-.18c-.01-.51-.15-.91-.41-1.18-.26-.28-.64-.42-1.13-.42Z"/>
    <path class="cls-6" d="M796.37,152.26c0-.28-.14-.5-.42-.66-.28-.16-.72-.31-1.34-.43-2.04-.43-3.06-1.3-3.06-2.6,0-.76.32-1.4.95-1.91.63-.51,1.46-.77,2.48-.77,1.09,0,1.96.26,2.61.77.65.51.98,1.18.98,2h-2.29c0-.33-.11-.6-.32-.81-.21-.21-.54-.32-.99-.32-.39,0-.68.09-.9.26s-.32.4-.32.67c0,.25.12.46.36.61.24.16.65.29,1.22.41.57.11,1.05.24,1.44.38,1.21.44,1.82,1.21,1.82,2.31,0,.78-.34,1.42-1.01,1.9s-1.54.73-2.6.73c-.72,0-1.36-.13-1.92-.38-.56-.26-1-.61-1.31-1.05-.32-.45-.48-.93-.48-1.45h2.17c.02.41.17.72.45.94s.66.33,1.13.33c.44,0,.77-.08,1-.25s.34-.38.34-.65Z"/>
    <path class="cls-6" d="M803.1,143.93v2.11h1.47v1.68h-1.47v4.29c0,.32.06.54.18.68.12.14.35.21.7.21.25,0,.48-.02.67-.06v1.74c-.45.14-.91.21-1.39.21-1.61,0-2.43-.81-2.46-2.44v-4.63h-1.25v-1.68h1.25v-2.11h2.29Z"/>
    <path class="cls-6" d="M808.2,146.04l.07.96c.61-.75,1.43-1.12,2.47-1.12,1.11,0,1.86.44,2.28,1.31.6-.87,1.46-1.31,2.58-1.31.93,0,1.62.27,2.08.81s.68,1.36.68,2.45v5.48h-2.3v-5.47c0-.49-.1-.84-.29-1.07s-.53-.34-1.01-.34c-.69,0-1.16.33-1.43.98v5.9s-2.29,0-2.29,0v-5.47c0-.5-.1-.86-.29-1.08-.2-.22-.53-.33-1-.33-.65,0-1.12.27-1.41.81v6.07h-2.29v-8.58h2.15Z"/>
    <path class="cls-6" d="M824.17,154.79c-1.26,0-2.28-.39-3.07-1.16-.79-.77-1.19-1.8-1.19-3.09v-.22c0-.86.17-1.63.5-2.31s.81-1.2,1.42-1.57c.61-.37,1.31-.55,2.09-.55,1.17,0,2.1.37,2.77,1.11.67.74,1.01,1.79,1.01,3.15v.94h-5.47c.07.56.3,1.01.67,1.35.37.34.85.51,1.42.51.88,0,1.57-.32,2.07-.96l1.13,1.26c-.34.49-.81.87-1.4,1.14s-1.24.41-1.95.41ZM823.91,147.73c-.46,0-.82.15-1.11.46-.28.31-.46.75-.54,1.32h3.19v-.18c-.01-.51-.15-.91-.41-1.18-.26-.28-.64-.42-1.13-.42Z"/>
    <path class="cls-6" d="M831.39,146.04l.07.99c.61-.77,1.44-1.15,2.47-1.15.91,0,1.59.27,2.03.8s.67,1.33.68,2.4v5.55h-2.29v-5.49c0-.49-.11-.84-.32-1.06-.21-.22-.56-.33-1.06-.33-.65,0-1.13.27-1.45.83v6.05h-2.29v-8.58h2.16Z"/>
    <path class="cls-6" d="M841.28,143.93v2.11h1.47v1.68h-1.47v4.29c0,.32.06.54.18.68.12.14.35.21.7.21.25,0,.48-.02.67-.06v1.74c-.45.14-.91.21-1.39.21-1.61,0-2.43-.81-2.46-2.44v-4.63h-1.25v-1.68h1.25v-2.11h2.29Z"/>
    <path class="cls-6" d="M848.9,152.26c0-.28-.14-.5-.42-.66-.28-.16-.72-.31-1.34-.43-2.04-.43-3.06-1.3-3.06-2.6,0-.76.32-1.4.95-1.91.63-.51,1.46-.77,2.48-.77,1.09,0,1.96.26,2.61.77.65.51.98,1.18.98,2h-2.29c0-.33-.11-.6-.32-.81-.21-.21-.54-.32-.99-.32-.39,0-.68.09-.9.26s-.32.4-.32.67c0,.25.12.46.36.61.24.16.65.29,1.22.41.57.11,1.05.24,1.44.38,1.21.44,1.82,1.21,1.82,2.31,0,.78-.34,1.42-1.01,1.9s-1.54.73-2.6.73c-.72,0-1.36-.13-1.92-.38-.56-.26-1-.61-1.31-1.05-.32-.45-.48-.93-.48-1.45h2.17c.02.41.17.72.45.94s.66.33,1.13.33c.44,0,.77-.08,1-.25s.34-.38.34-.65Z"/>
  </g>
  <g>
    <path class="cls-6" d="M655.03,111.34v6.55c0,.65-.15,1.21-.43,1.69-.28.48-.68.85-1.19,1.1s-1.1.39-1.76.39c-1.01,0-1.82-.28-2.43-.83s-.92-1.32-.95-2.29v-6.61h.8v6.49c0,.81.23,1.44.69,1.88.46.45,1.09.67,1.88.67s1.42-.22,1.88-.67c.46-.45.69-1.07.69-1.87v-6.5h.82Z"/>
    <path class="cls-6" d="M662.79,118.58c0-.53-.19-.95-.56-1.26-.37-.31-1.06-.6-2.05-.88-.99-.28-1.72-.58-2.17-.91-.65-.47-.98-1.08-.98-1.83s.3-1.33.91-1.79c.6-.46,1.38-.69,2.32-.69.64,0,1.21.12,1.71.37s.89.59,1.17,1.03.42.93.42,1.47h-.82c0-.66-.22-1.18-.67-1.58-.45-.4-1.05-.6-1.81-.6s-1.32.16-1.75.49c-.44.33-.65.76-.65,1.28,0,.49.2.89.59,1.19.39.31,1.02.58,1.88.82s1.51.48,1.96.73c.44.25.78.55,1,.91.22.35.34.77.34,1.25,0,.76-.3,1.36-.91,1.82s-1.4.69-2.39.69c-.68,0-1.3-.12-1.86-.36-.56-.24-.99-.58-1.29-1.02-.29-.43-.44-.93-.44-1.5h.81c0,.68.25,1.21.76,1.6.51.39,1.18.59,2.02.59.75,0,1.35-.17,1.8-.49.45-.33.68-.77.68-1.31Z"/>
    <path class="cls-6" d="M670.32,118.57c0-.49-.16-.89-.47-1.2-.32-.31-.88-.6-1.67-.88-.99-.31-1.69-.68-2.09-1.11-.4-.43-.6-.98-.6-1.66,0-.72.22-1.3.66-1.74.44-.45,1.04-.7,1.79-.76v-1.33h.67v1.33c.77.07,1.37.36,1.8.87s.64,1.2.64,2.07h-.79c0-.69-.18-1.24-.54-1.64s-.85-.61-1.47-.61-1.11.16-1.46.49c-.35.33-.52.77-.52,1.31s.16.94.48,1.24c.32.3.87.58,1.64.84.77.26,1.33.51,1.68.75.35.24.61.52.78.85.17.33.26.72.26,1.18,0,.72-.23,1.3-.68,1.74-.45.44-1.07.69-1.86.75v1.25h-.67v-1.25c-.88-.06-1.57-.33-2.05-.83-.48-.5-.73-1.18-.73-2.05h.79c0,.69.2,1.22.6,1.61.4.39.96.58,1.67.58.62,0,1.13-.17,1.53-.5.39-.33.59-.77.59-1.3Z"/>
    <path class="cls-6" d="M684.43,129.94h-1.58v-17.3l-5.22,1.94v-1.48l6.54-2.43h.26v19.26Z"/>
    <path class="cls-6" d="M702.05,129.94h-12.02v-1.21l6.58-7.46c1.09-1.26,1.85-2.29,2.27-3.11s.63-1.61.63-2.39c0-1.21-.36-2.17-1.07-2.88-.71-.71-1.69-1.06-2.94-1.06s-2.34.41-3.13,1.24c-.8.83-1.19,1.9-1.19,3.22h-1.57c0-1.08.24-2.07.73-2.95.49-.89,1.18-1.58,2.08-2.09.9-.5,1.93-.76,3.08-.76,1.76,0,3.13.46,4.12,1.38.99.92,1.48,2.18,1.48,3.77,0,.9-.28,1.88-.84,2.94-.56,1.06-1.54,2.39-2.95,3.98l-5.35,6.05h10.09v1.33Z"/>
    <path class="cls-6" d="M705.22,128.99c0-.31.1-.57.3-.78.2-.22.47-.32.82-.32s.63.11.83.32c.2.21.3.48.3.78s-.1.56-.3.76c-.2.2-.48.3-.83.3s-.63-.1-.82-.3-.3-.45-.3-.76Z"/>
    <path class="cls-6" d="M711.94,120.1l.94-9.36h9.6v1.46h-8.24l-.67,6.49c1.03-.7,2.23-1.05,3.61-1.05,1.73,0,3.11.56,4.14,1.69,1.03,1.13,1.54,2.62,1.54,4.5,0,2.02-.5,3.59-1.5,4.71s-2.41,1.67-4.23,1.67c-1.67,0-3.02-.47-4.06-1.4s-1.63-2.24-1.78-3.92h1.52c.15,1.31.59,2.3,1.33,2.97.74.67,1.74,1.01,2.99,1.01,1.37,0,2.41-.43,3.11-1.3.7-.87,1.05-2.11,1.05-3.72,0-1.41-.39-2.55-1.17-3.44-.78-.89-1.85-1.33-3.2-1.33-.75,0-1.4.09-1.95.28-.55.19-1.14.56-1.75,1.1l-1.25-.36Z"/>
    <path class="cls-6" d="M737.63,126.44c0,1.11-.25,1.99-.74,2.65-.49.65-1.15.98-1.98.98-.99,0-1.74-.37-2.25-1.11l-.03.98h-.74v-10.12h.79v4.03c.5-.78,1.24-1.17,2.23-1.17.84,0,1.51.32,2,.96.49.64.73,1.54.73,2.69v.12ZM736.84,126.31c0-.94-.18-1.67-.55-2.18-.37-.51-.88-.77-1.54-.77-.5,0-.93.12-1.29.37s-.62.61-.8,1.09v3.22c.39.9,1.09,1.34,2.1,1.34.65,0,1.16-.26,1.53-.77.37-.51.55-1.28.55-2.31Z"/>
    <path class="cls-6" d="M740.1,122.8l.03,1.22c.27-.44.6-.77,1-1,.4-.23.84-.35,1.32-.35.76,0,1.33.21,1.71.65.37.43.56,1.08.57,1.94v4.68h-.78v-4.69c0-.64-.14-1.11-.41-1.42-.27-.31-.69-.47-1.28-.47-.49,0-.92.15-1.29.46-.38.3-.65.72-.83,1.24v4.88h-.78v-7.13h.75Z"/>
    <path class="cls-6" d="M746.73,129.46c0-.15.05-.28.15-.39.1-.11.24-.16.41-.16s.31.05.42.16c.1.11.15.24.15.39s-.05.28-.15.38c-.1.1-.24.15-.42.15s-.31-.05-.41-.15c-.1-.1-.15-.22-.15-.38Z"/>
  </g>
  <g>
    <line class="cls-7" x1="620.41" y1="46.56" x2="620.42" y2="46.56"/>
    <line class="cls-11" x1="622.41" y1="46.56" x2="639.47" y2="46.56"/>
    <line class="cls-7" x1="640.46" y1="46.56" x2="640.47" y2="46.56"/>
  </g>
  <g>
    <line class="cls-7" x1="620.41" y1="80.7" x2="620.42" y2="80.7"/>
    <line class="cls-11" x1="622.41" y1="80.7" x2="639.47" y2="80.7"/>
    <line class="cls-7" x1="640.46" y1="80.7" x2="640.47" y2="80.7"/>
  </g>
  <g>
    <line class="cls-7" x1="620.41" y1="117.05" x2="620.42" y2="117.05"/>
    <line class="cls-11" x1="622.41" y1="117.05" x2="639.47" y2="117.05"/>
    <line class="cls-7" x1="640.46" y1="117.05" x2="640.47" y2="117.05"/>
  </g>
  <g>
    <path d="M561.93,206.27h-3.3v-16h3.3v16Z"/>
    <path d="M568.82,194.39l.1,1.37c.85-1.06,1.99-1.59,3.42-1.59,1.26,0,2.2.37,2.81,1.11.62.74.93,1.85.95,3.32v7.68h-3.17v-7.6c0-.67-.15-1.16-.44-1.47-.29-.3-.78-.46-1.46-.46-.89,0-1.56.38-2.01,1.14v8.38h-3.17v-11.89h2.99Z"/>
    <path d="M583.65,202.4l2.21-8.01h3.32l-4.01,11.89h-3.03l-4.01-11.89h3.32l2.21,8.01Z"/>
    <path d="M596.64,206.49c-1.74,0-3.16-.53-4.26-1.6-1.09-1.07-1.64-2.49-1.64-4.27v-.31c0-1.19.23-2.26.69-3.2.46-.94,1.12-1.67,1.96-2.18.85-.51,1.81-.76,2.89-.76,1.63,0,2.91.51,3.84,1.54s1.4,2.48,1.4,4.36v1.3h-7.57c.1.78.41,1.4.93,1.87s1.17.7,1.96.7c1.22,0,2.18-.44,2.87-1.33l1.56,1.75c-.48.67-1.12,1.2-1.93,1.58-.81.38-1.71.57-2.7.57ZM596.28,196.73c-.63,0-1.14.21-1.53.64-.39.43-.64,1.04-.75,1.83h4.42v-.25c-.01-.71-.21-1.25-.57-1.64-.37-.39-.89-.58-1.56-.58Z"/>
    <path d="M610.8,202.99c0-.39-.19-.69-.58-.92-.38-.22-1-.42-1.85-.6-2.83-.59-4.24-1.79-4.24-3.6,0-1.05.44-1.94,1.31-2.64s2.02-1.06,3.43-1.06c1.51,0,2.72.36,3.62,1.07.91.71,1.36,1.63,1.36,2.77h-3.17c0-.45-.15-.83-.44-1.13-.29-.3-.75-.45-1.37-.45-.53,0-.95.12-1.24.36-.29.24-.44.55-.44.92,0,.35.17.64.5.85s.9.4,1.69.56,1.46.33,2,.53c1.68.62,2.52,1.68,2.52,3.2,0,1.08-.46,1.96-1.39,2.63-.93.67-2.13,1-3.6,1-1,0-1.88-.18-2.65-.53-.77-.35-1.38-.84-1.82-1.46s-.66-1.29-.66-2h3.01c.03.56.24,1,.63,1.3.39.3.91.45,1.56.45.61,0,1.07-.12,1.38-.35.31-.23.47-.53.47-.91Z"/>
    <path d="M620.98,191.46v2.92h2.03v2.33h-2.03v5.93c0,.44.08.75.25.94.17.19.49.29.97.29.35,0,.66-.03.93-.08v2.41c-.62.19-1.26.29-1.92.29-2.23,0-3.36-1.12-3.41-3.37v-6.41h-1.74v-2.33h1.74v-2.92h3.17Z"/>
    <path d="M628.91,194.39l.1,1.33c.84-1.03,1.98-1.55,3.42-1.55,1.53,0,2.58.6,3.15,1.81.83-1.21,2.03-1.81,3.57-1.81,1.29,0,2.25.38,2.88,1.13.63.75.95,1.88.95,3.39v7.59h-3.19v-7.58c0-.67-.13-1.17-.4-1.48-.26-.31-.73-.47-1.4-.47-.95,0-1.61.45-1.98,1.36v8.16s-3.16,0-3.16,0v-7.57c0-.69-.14-1.19-.41-1.49-.27-.31-.73-.46-1.38-.46-.9,0-1.55.37-1.96,1.12v8.4h-3.17v-11.89h2.98Z"/>
    <path d="M651.88,206.49c-1.74,0-3.16-.53-4.26-1.6-1.09-1.07-1.64-2.49-1.64-4.27v-.31c0-1.19.23-2.26.69-3.2.46-.94,1.12-1.67,1.96-2.18.85-.51,1.81-.76,2.89-.76,1.63,0,2.91.51,3.84,1.54s1.4,2.48,1.4,4.36v1.3h-7.57c.1.78.41,1.4.93,1.87s1.17.7,1.96.7c1.22,0,2.18-.44,2.87-1.33l1.56,1.75c-.48.67-1.12,1.2-1.93,1.58-.81.38-1.71.57-2.7.57ZM651.52,196.73c-.63,0-1.14.21-1.53.64-.39.43-.64,1.04-.75,1.83h4.42v-.25c-.01-.71-.21-1.25-.57-1.64-.37-.39-.89-.58-1.56-.58Z"/>
    <path d="M662.74,194.39l.1,1.37c.85-1.06,1.99-1.59,3.42-1.59,1.26,0,2.2.37,2.81,1.11.62.74.93,1.85.95,3.32v7.68h-3.17v-7.6c0-.67-.15-1.16-.44-1.47-.29-.3-.78-.46-1.46-.46-.89,0-1.56.38-2.01,1.14v8.38h-3.17v-11.89h2.99Z"/>
    <path d="M677.29,191.46v2.92h2.03v2.33h-2.03v5.93c0,.44.08.75.25.94.17.19.49.29.97.29.35,0,.66-.03.93-.08v2.41c-.62.19-1.26.29-1.92.29-2.23,0-3.36-1.12-3.41-3.37v-6.41h-1.74v-2.33h1.74v-2.92h3.17Z"/>
    <path d="M567.11,227.2c-.12,1.72-.76,3.08-1.91,4.06-1.15.99-2.66,1.48-4.53,1.48-2.05,0-3.66-.69-4.84-2.07-1.18-1.38-1.76-3.28-1.76-5.69v-.98c0-1.54.27-2.89.81-4.06s1.32-2.07,2.32-2.7c1.01-.63,2.18-.94,3.51-.94,1.85,0,3.33.49,4.46,1.48,1.13.99,1.78,2.38,1.96,4.16h-3.3c-.08-1.03-.37-1.78-.86-2.25-.5-.46-1.25-.7-2.26-.7-1.1,0-1.92.39-2.47,1.18s-.83,2.01-.84,3.66v1.21c0,1.73.26,2.99.79,3.79.52.8,1.35,1.2,2.48,1.2,1.02,0,1.78-.23,2.28-.7.5-.46.79-1.18.86-2.16h3.3Z"/>
    <path d="M577.03,232.52c-.15-.29-.25-.64-.32-1.07-.77.86-1.77,1.29-3,1.29-1.17,0-2.13-.34-2.89-1.01-.77-.67-1.15-1.52-1.15-2.55,0-1.26.47-2.23,1.4-2.9.93-.67,2.28-1.01,4.05-1.02h1.46v-.68c0-.55-.14-.99-.42-1.32-.28-.33-.73-.49-1.33-.49-.53,0-.95.13-1.26.38-.3.26-.46.61-.46,1.05h-3.17c0-.69.21-1.33.64-1.91.42-.59,1.02-1.04,1.8-1.38.78-.33,1.65-.5,2.62-.5,1.46,0,2.63.37,3.49,1.1s1.29,1.77,1.29,3.1v5.15c0,1.13.16,1.98.47,2.56v.19h-3.21ZM574.41,230.32c.47,0,.9-.1,1.3-.31s.69-.49.88-.84v-2.04h-1.19c-1.59,0-2.44.55-2.54,1.65v.19c-.01.4.13.72.41.98.28.26.66.38,1.14.38Z"/>
    <path d="M594,226.69c0,1.83-.42,3.3-1.25,4.4-.83,1.1-1.95,1.65-3.37,1.65-1.2,0-2.17-.42-2.91-1.25v5.6h-3.17v-16.46h2.94l.11,1.16c.77-.92,1.77-1.38,3.01-1.38,1.46,0,2.6.54,3.42,1.63.81,1.08,1.22,2.58,1.22,4.48v.16ZM590.83,226.46c0-1.11-.2-1.96-.59-2.56s-.96-.9-1.71-.9c-1,0-1.68.38-2.05,1.14v4.87c.39.78,1.08,1.18,2.08,1.18,1.52,0,2.27-1.24,2.27-3.72Z"/>
    <path d="M603.9,232.52c-.15-.29-.25-.64-.32-1.07-.77.86-1.77,1.29-3,1.29-1.17,0-2.13-.34-2.89-1.01-.77-.67-1.15-1.52-1.15-2.55,0-1.26.47-2.23,1.4-2.9.93-.67,2.28-1.01,4.05-1.02h1.46v-.68c0-.55-.14-.99-.42-1.32-.28-.33-.73-.49-1.33-.49-.53,0-.95.13-1.26.38-.3.26-.46.61-.46,1.05h-3.17c0-.69.21-1.33.64-1.91.42-.59,1.02-1.04,1.8-1.38.78-.33,1.65-.5,2.62-.5,1.46,0,2.63.37,3.49,1.1s1.29,1.77,1.29,3.1v5.15c0,1.13.16,1.98.47,2.56v.19h-3.21ZM601.27,230.32c.47,0,.9-.1,1.3-.31s.69-.49.88-.84v-2.04h-1.19c-1.59,0-2.44.55-2.54,1.65v.19c-.01.4.13.72.41.98.28.26.66.38,1.14.38Z"/>
    <path d="M620.88,226.69c0,1.9-.41,3.39-1.22,4.46-.81,1.07-1.95,1.6-3.41,1.6-1.29,0-2.32-.49-3.09-1.48l-.14,1.26h-2.86v-16.88h3.17v6.05c.73-.86,1.7-1.29,2.89-1.29,1.45,0,2.59.53,3.41,1.6.82,1.07,1.24,2.57,1.24,4.5v.18ZM617.7,226.46c0-1.2-.19-2.08-.57-2.63-.38-.55-.95-.83-1.7-.83-1.01,0-1.71.41-2.09,1.24v4.69c.39.83,1.09,1.25,2.11,1.25s1.7-.51,2.02-1.52c.15-.48.23-1.22.23-2.21Z"/>
    <path d="M623.85,217.56c0-.48.16-.87.48-1.18.32-.31.75-.46,1.3-.46s.97.15,1.3.46.48.7.48,1.18-.16.88-.49,1.19c-.33.31-.76.46-1.29.46s-.96-.15-1.29-.46c-.33-.31-.49-.7-.49-1.19ZM627.23,232.52h-3.19v-11.89h3.19v11.89Z"/>
    <path d="M634.15,232.52h-3.19v-16.88h3.19v16.88Z"/>
    <path d="M637.7,217.56c0-.48.16-.87.48-1.18.32-.31.75-.46,1.3-.46s.97.15,1.3.46.48.7.48,1.18-.16.88-.49,1.19c-.33.31-.76.46-1.29.46s-.96-.15-1.29-.46c-.33-.31-.49-.7-.49-1.19ZM641.07,232.52h-3.19v-11.89h3.19v11.89Z"/>
    <path d="M648.54,217.71v2.92h2.03v2.33h-2.03v5.93c0,.44.08.75.25.94.17.19.49.29.97.29.35,0,.66-.03.93-.08v2.41c-.62.19-1.26.29-1.92.29-2.23,0-3.36-1.12-3.41-3.37v-6.41h-1.74v-2.33h1.74v-2.92h3.17Z"/>
    <path d="M653.29,217.56c0-.48.16-.87.48-1.18.32-.31.75-.46,1.3-.46s.97.15,1.3.46.48.7.48,1.18-.16.88-.49,1.19c-.33.31-.76.46-1.29.46s-.96-.15-1.29-.46c-.33-.31-.49-.7-.49-1.19ZM656.66,232.52h-3.19v-11.89h3.19v11.89Z"/>
    <path d="M665.68,232.74c-1.74,0-3.16-.53-4.26-1.6-1.09-1.07-1.64-2.49-1.64-4.27v-.31c0-1.19.23-2.26.69-3.2.46-.94,1.12-1.67,1.96-2.18.85-.51,1.81-.76,2.89-.76,1.63,0,2.91.51,3.84,1.54s1.4,2.48,1.4,4.36v1.3h-7.57c.1.78.41,1.4.93,1.87s1.17.7,1.96.7c1.22,0,2.18-.44,2.87-1.33l1.56,1.75c-.48.67-1.12,1.2-1.93,1.58-.81.38-1.71.57-2.7.57ZM665.31,222.98c-.63,0-1.14.21-1.53.64-.39.43-.64,1.04-.75,1.83h4.42v-.25c-.01-.71-.21-1.25-.57-1.64-.37-.39-.89-.58-1.56-.58Z"/>
    <path d="M679.83,229.24c0-.39-.19-.69-.58-.92-.38-.22-1-.42-1.85-.6-2.83-.59-4.24-1.79-4.24-3.6,0-1.05.44-1.94,1.31-2.64s2.02-1.06,3.43-1.06c1.51,0,2.72.36,3.62,1.07.91.71,1.36,1.63,1.36,2.77h-3.17c0-.45-.15-.83-.44-1.13-.29-.3-.75-.45-1.37-.45-.53,0-.95.12-1.24.36-.29.24-.44.55-.44.92,0,.35.17.64.5.85s.9.4,1.69.56,1.46.33,2,.53c1.68.62,2.52,1.68,2.52,3.2,0,1.08-.46,1.96-1.39,2.63-.93.67-2.13,1-3.6,1-1,0-1.88-.18-2.65-.53-.77-.35-1.38-.84-1.82-1.46s-.66-1.29-.66-2h3.01c.03.56.24,1,.63,1.3.39.3.91.45,1.56.45.61,0,1.07-.12,1.38-.35.31-.23.47-.53.47-.91Z"/>
  </g>
</svg>