<?xml version="1.0" encoding="utf-8"?>
<!-- Generator: Adobe Illustrator 28.2.0, SVG Export Plug-In . SVG Version: 6.00 Build 0)  -->
<svg version="1.1" id="Layer_1" xmlns="http://www.w3.org/2000/svg" xmlns:xlink="http://www.w3.org/1999/xlink" x="0px" y="0px"
	 viewBox="0 0 80 80" style="enable-background:new 0 0 80 80;" xml:space="preserve">
<style type="text/css">
	.st0{fill:#FFFFFF;}
	.st1{fill:#006B52;}
	.st2{fill:none;stroke:#FFFFFF;stroke-width:2.5;stroke-linecap:round;stroke-linejoin:round;stroke-miterlimit:10;}
	.st3{fill:none;stroke:#FFFFFF;stroke-width:2.5;stroke-miterlimit:10;}
</style>
<rect y="0.2" class="st0" width="80" height="79.5"/>
<ellipse class="st1" cx="40" cy="40.5" rx="40" ry="39.8"/>
<path class="st2" d="M66.3,40.7c-0.9-1.6-1.8-3.2-2.8-4.8c-4.1-7.1-5.1-7-13.4-6.9c-1,0-2.4-0.8-3-1.6c-1.6-2.2-2.8-4.7-4.2-7.1
	c-0.8-1.3-1.9-1.9-2.9-1.8c-1-0.2-2.1,0.4-2.9,1.8c-1.4,2.3-2.6,4.8-4.2,7.1c-0.6,0.8-2,1.6-3,1.6c-8.3-0.2-8.3-0.2-12.4,6.9
	c-0.9,1.6-1.8,3.2-2.8,4.8c-0.8,1.3-1.2,2.7,0.4,3.5c1.6,0.9,2.5-0.3,3.2-1.6c0.7-1.3,1.5-2.6,2.9-3.8c0,1.4,0,2.8,0,4.2
	c0,6.3,0,12.6,0,18.9c0,0.5,0,1,0,1.4v0.2c0,1.1,0.9,2,2,2l0,0c1.1,0,2-0.9,2-2v-0.3c0.1-0.5,0.1-1,0.1-1.4c0-1.1,0-2.3,0-3.4
	c0-0.1-0.1-0.3-0.1-0.4v-2.3v-2.6c0-0.9,0.8-1.3,1.6-1.6c1.7-0.6,2.6,0.7,2.6,1.6v2.2v0.4v2.2v5.5c0,1.1,0.9,2,2,2c1.1,0,2-0.9,2-2
	v-0.3c0-0.3,0-0.7,0-1c0-1.9,0-3.8,0-5.7v-0.7c0,0,0,0,0-0.1c0-4.4-0.1-8.8-0.2-13.2c-0.1-3.9,0.6-5.4,2.8-8.6
	c1.6-2.3,1.9-4.9,3.6-7.8l0.3-0.4l0.3,0.4c1.7,2.9,2,5.5,3.6,7.8c2.2,3.3,2.9,4.8,2.8,8.6c-0.1,4.4-0.2,8.7-0.2,13.2c0,0,0,0,0,0.1
	v0.7c0,1.9,0,3.8,0,5.7c0,0.3,0,0.7,0,1v0.3c0,1.1,0.9,2,2,2s2-0.9,2-2v-5.5v-2.3v-0.4V53c0-0.9,0.8-2,2.6-1.6
	c0.9,0.2,1.6,0.7,1.6,1.6v2.6v2.3c0,0.1,0,0.3-0.1,0.4c0,1.1,0,2.3,0,3.4c0,0.5,0,1,0.1,1.4v0.3c0,1.1,0.9,2,2,2l0,0
	c1.1,0,2-0.9,2-2v-0.2c0.1-0.5,0-1,0-1.4c0-6.3,0-12.6,0-18.9c0-1.4,0-2.8,0-4.2c1.4,1.2,2.9,2.5,3.9,3.8c0.9,1.2,1.8,2.5,3.4,1.7
	C67.7,43.4,67.1,42,66.3,40.7z"/>
<path class="st3" d="M53.2,25c2.8,0,5-2.3,5.1-5.1c0.1-2.9-2.2-5.3-5.1-5.3c-3,0-5.3,2.3-5.3,5.1C47.9,22.6,50.3,25,53.2,25z"/>
<path class="st3" d="M26.8,25c2.9,0,5.3-2.3,5.3-5.2s-2.3-5.2-5.3-5.1c-2.9,0-5.2,2.4-5.1,5.3C21.8,22.7,24,24.9,26.8,25z"/>
</svg>
