<svg xmlns="http://www.w3.org/2000/svg" viewBox="0 0 180 38"><path d="M37.12 5.88a73.944 73.944 0 0 1-3.92 4.85l-.01.01-.02.02C24.74 20.32 14.89 26.45 6.1 29.82c0 0-.01 0-.01.01-1.41.54-2.8 1.01-4.14 1.41.04.17.09.33.14.49l.03.09c.04.11.08.23.12.34.02.05.04.11.06.16.04.1.09.21.14.31.05.11.1.21.16.32.02.03.03.06.05.09.18.32.39.62.61.92.04.04.08.09.12.14l.12.15c.18.21.37.41.57.61 1.83-.61 3.92-1.39 6.19-2.36.02-.01.03-.01.05-.02.01-.01.03-.01.04-.02 6.77-2.92 15.1-7.61 22.83-15.06l.02-.02v.04c-.01.01-.01.02-.02.03-4.54 6.78-9.88 11.61-14.73 15.01-.01.01-.02.01-.02.02-.01.01-.02.01-.03.02-2.71 1.9-5.27 3.34-7.44 4.42h8.35c2.26-1.59 4.18-3.06 5.83-4.42.01-.01.02-.01.03-.02l.02-.02c4.04-3.35 6.42-6.02 8-8.03l.02-.02.01-.01c.64-.82 1.16-1.53 1.6-2.13 0 0-.44 1.48-1.14 3.5-.14.42-.3.83-.47 1.24 0 0 0 .01-.01.01-.01.01-.01.03-.02.04-.71 1.74-1.61 3.37-2.74 5.03-.09.12-.18.25-.27.37 0 .01-.01.01-.01.02l-.02.02c-1.54 2.09-2.95 3.5-4.16 4.42h4.11c4.15 0 7.52-3.37 7.52-7.52V8.54c0-.94-.17-1.83-.49-2.66zM6.06 26.61V8.38c0-1.68 1.36-3.04 3.04-3.04h21.03c1.06 0 1.99.54 2.54 1.36.85-1.1 1.84-2.4 2.7-3.51a7.495 7.495 0 0 0-5.28-2.17H9.24c-4.15 0-7.52 3.37-7.52 7.52v19.62l4.34-1.55zM49.65 1.03h5.58c.98 0 1.87.09 2.66.27s1.47.47 2.03.87c.56.4 1 .92 1.3 1.55.31.63.46 1.38.46 2.27 0 .95-.18 1.75-.53 2.39-.35.64-.83 1.16-1.44 1.56-.6.39-1.31.68-2.11.86-.81.18-1.66.27-2.56.27H52.7v7.08h-3.04V1.03zm5.17 7.47c.5 0 .97-.04 1.42-.11.45-.07.85-.2 1.21-.39.35-.18.64-.44.85-.76.21-.32.31-.74.31-1.26 0-.5-.1-.91-.31-1.22a2.28 2.28 0 0 0-.83-.74c-.35-.18-.74-.29-1.18-.35-.44-.06-.9-.08-1.37-.08H52.7v4.9h2.12zm9.25-5.9c0-.47.17-.87.52-1.22s.79-.52 1.32-.52.98.16 1.34.49c.36.33.54.75.54 1.24 0 .5-.18.91-.54 1.24-.36.33-.81.49-1.34.49s-.97-.17-1.32-.52c-.35-.32-.52-.73-.52-1.2zm.41 3.94h2.9v11.6h-2.9V6.54zm6.42 0h2.75V8.4h.05c.26-.58.7-1.09 1.34-1.53.64-.44 1.39-.66 2.26-.66.76 0 1.4.13 1.94.4s.98.62 1.33 1.05c.35.44.6.93.76 1.5.16.56.24 1.14.24 1.74v7.25h-2.9v-6.43c0-.34-.02-.69-.07-1.06-.05-.37-.15-.7-.31-1-.16-.3-.38-.54-.66-.74-.28-.19-.66-.29-1.12-.29s-.87.08-1.21.27c-.34.19-.62.42-.83.71-.22.29-.38.62-.5 1-.11.38-.17.76-.17 1.15v6.38h-2.9V6.54zm25.13 5.69v.39c0 .13-.01.26-.02.39h-8.82c.03.42.14.8.33 1.15.18.35.43.64.74.89s.65.45 1.04.59c.39.14.79.22 1.21.22.72 0 1.34-.13 1.84-.4s.91-.63 1.23-1.1l1.93 1.55c-1.14 1.55-2.8 2.32-4.98 2.32-.9 0-1.73-.14-2.49-.42-.76-.28-1.41-.68-1.97-1.2-.56-.51-.99-1.15-1.3-1.9-.31-.75-.47-1.6-.47-2.55 0-.93.16-1.78.47-2.55.31-.76.74-1.42 1.29-1.96s1.2-.96 1.94-1.26c.75-.3 1.56-.45 2.43-.45.81 0 1.55.13 2.23.4.68.27 1.28.66 1.78 1.18s.89 1.18 1.17 1.96c.27.79.42 1.7.42 2.75zm-2.9-1.31c0-.37-.05-.72-.16-1.06s-.27-.64-.49-.89c-.23-.26-.51-.46-.86-.62-.35-.15-.75-.23-1.22-.23-.87 0-1.61.26-2.21.79-.6.52-.94 1.2-1 2.02h5.94zm5.84-9.89h6.67c.64 0 1.28.08 1.91.23.63.15 1.19.4 1.68.75s.89.79 1.2 1.34c.31.55.46 1.21.46 1.98 0 .97-.27 1.76-.82 2.39-.55.63-1.26 1.08-2.15 1.35v.05c1.08.15 1.96.56 2.66 1.26.69.69 1.04 1.62 1.04 2.78 0 .93-.19 1.72-.56 2.36-.37.64-.86 1.15-1.46 1.53-.6.39-1.3.66-2.08.83-.78.17-1.57.25-2.38.25h-6.16V1.03zm3.05 6.96h2.71c1.01 0 1.79-.2 2.32-.6.53-.4.8-.97.8-1.72 0-.77-.27-1.32-.82-1.64-.55-.32-1.4-.48-2.56-.48h-2.44v4.44zm0 7.59h2.73c.39 0 .8-.03 1.26-.08.45-.06.87-.17 1.24-.35.38-.18.69-.43.94-.77s.37-.79.37-1.35c0-.9-.31-1.53-.92-1.88-.61-.35-1.54-.53-2.78-.53h-2.85v4.96zm12.44-9.04h2.78v1.93h.05c.32-.68.77-1.22 1.35-1.64.58-.42 1.26-.63 2.03-.63.11 0 .23 0 .36.01.13.01.24.03.34.06v2.66a4.75 4.75 0 0 0-.49-.1c-.14-.02-.27-.02-.4-.02-.66 0-1.19.12-1.59.36-.4.24-.72.53-.94.87-.23.34-.38.68-.46 1.04-.08.35-.12.64-.12.85v6.21h-2.9V6.54zm9.03-3.94c0-.47.17-.87.52-1.22s.79-.52 1.32-.52.98.16 1.34.49c.36.33.54.75.54 1.24 0 .5-.18.91-.54 1.24s-.81.49-1.34.49-.97-.17-1.32-.52c-.35-.32-.52-.73-.52-1.2zm.41 3.94h2.9v11.6h-2.9V6.54zm18.21 11.58h-2.75v-2.15h-.05c-.4.68-.96 1.19-1.68 1.55-.72.35-1.49.53-2.31.53-.89 0-1.68-.17-2.38-.49-.7-.33-1.3-.77-1.79-1.33a6.05 6.05 0 0 1-1.14-1.96c-.27-.75-.4-1.55-.4-2.4s.14-1.65.41-2.39c.27-.74.66-1.38 1.16-1.93.5-.55 1.1-.98 1.79-1.29.69-.31 1.45-.47 2.27-.47.53 0 1.01.06 1.43.18A4.67 4.67 0 0 1 138.58 7c.23.21.41.41.56.6h.07V1.03h2.9v17.09zm-9.54-6.26c0 .45.07.9.21 1.35.14.45.34.85.62 1.21s.62.64 1.04.87c.42.23.91.34 1.47.34.53 0 1.01-.11 1.43-.33.42-.22.78-.5 1.08-.86.3-.35.52-.75.68-1.2.15-.44.23-.89.23-1.34 0-.45-.08-.9-.23-1.35-.15-.45-.38-.85-.68-1.21-.3-.35-.66-.64-1.08-.87-.42-.23-.89-.34-1.43-.34-.56 0-1.06.11-1.47.33-.42.22-.77.5-1.04.86-.27.35-.48.75-.62 1.2-.14.45-.21.89-.21 1.34zm24.86-5.58v10.56c0 1.05-.13 1.99-.39 2.84-.26.85-.66 1.56-1.2 2.15-.54.59-1.22 1.04-2.04 1.37-.82.32-1.8.48-2.92.48a10.54 10.54 0 0 1-3.04-.48c-.51-.16-.99-.36-1.46-.6s-.89-.52-1.26-.82l1.67-2.25c.56.53 1.2.94 1.91 1.22s1.43.42 2.15.42c.69 0 1.28-.1 1.75-.3.47-.2.85-.48 1.14-.84.28-.36.48-.78.6-1.26.12-.49.18-1.02.18-1.6v-.85h-.05c-.42.57-.95 1-1.61 1.31-.65.3-1.38.45-2.19.45-.87 0-1.66-.16-2.37-.48-.71-.32-1.31-.76-1.8-1.3-.49-.55-.87-1.19-1.15-1.92-.27-.73-.41-1.51-.41-2.33 0-.84.13-1.63.4-2.37.27-.74.64-1.39 1.14-1.93.49-.55 1.09-.98 1.79-1.3.7-.32 1.49-.48 2.36-.48.82 0 1.59.17 2.29.51.71.34 1.27.86 1.69 1.57h.05V6.28h2.77zm-6.19 2.03c-.53 0-1 .1-1.41.29a3 3 0 0 0-1.04.78c-.28.33-.5.72-.65 1.17-.15.45-.23.93-.23 1.44 0 .47.08.91.23 1.35.15.43.37.82.65 1.17s.63.62 1.04.83c.41.21.87.31 1.39.31.53 0 1.01-.1 1.44-.3.43-.2.79-.47 1.09-.81.3-.34.53-.73.69-1.17.16-.44.24-.9.24-1.38 0-.5-.08-.97-.24-1.42-.16-.45-.39-.84-.69-1.18-.3-.34-.66-.6-1.08-.79-.42-.19-.9-.29-1.43-.29zm20.41 3.92v.39c0 .13-.01.26-.02.39h-8.82c.03.42.14.8.33 1.15.18.35.43.64.74.89s.65.45 1.04.59c.39.14.79.22 1.21.22.72 0 1.34-.13 1.84-.4s.91-.63 1.23-1.1l1.93 1.55c-1.14 1.55-2.8 2.32-4.98 2.32-.9 0-1.73-.14-2.49-.42-.76-.28-1.41-.68-1.97-1.2-.56-.51-.99-1.15-1.3-1.9-.31-.75-.47-1.6-.47-2.55 0-.93.16-1.78.47-2.55.31-.76.74-1.42 1.29-1.96s1.2-.96 1.94-1.26c.75-.3 1.56-.45 2.43-.45.81 0 1.55.13 2.23.4.68.27 1.28.66 1.78 1.18.5.52.89 1.18 1.17 1.96.28.79.42 1.7.42 2.75zm-2.9-1.31c0-.37-.05-.72-.16-1.06-.1-.34-.27-.64-.49-.89-.23-.26-.51-.46-.86-.62-.35-.15-.75-.23-1.22-.23-.87 0-1.61.26-2.21.79-.6.52-.94 1.2-1 2.02h5.94z" fill="#006a51"/><path d="M49.65 27.89h1.6v9.01h-1.6v-9.01zm7.18 0h2.13l4.19 6.75h.03v-6.75h1.6v9.01h-2.04l-4.28-6.96h-.03v6.96h-1.6v-9.01zm12.39 0h1.79l2.48 6.94h.05l2.51-6.94h1.73l-3.62 9.01h-1.39l-3.55-9.01zm13.03 0h5.97v1.4h-4.37v2.29h4.14v1.35h-4.14v2.55h4.6v1.43h-6.2v-9.02zm15.94 1.89c-.17-.22-.41-.4-.72-.55a2.094 2.094 0 0 0-1.49-.16c-.19.05-.36.12-.51.22-.15.1-.28.23-.38.38-.1.16-.15.35-.15.57 0 .2.04.38.13.52.08.14.2.27.35.37.15.1.33.19.54.27.21.08.45.15.7.23.29.09.59.2.9.32.31.12.59.28.85.47.26.2.47.44.64.74.17.3.25.67.25 1.11 0 .48-.09.91-.27 1.27-.18.36-.42.66-.71.9-.3.24-.64.42-1.04.53-.4.12-.82.18-1.26.18-.59 0-1.16-.11-1.72-.32-.56-.22-1.02-.54-1.37-.96l1.15-1.07c.22.31.52.55.88.73.37.18.73.27 1.09.27.19 0 .38-.02.57-.07.2-.05.37-.13.53-.24.16-.11.28-.25.38-.41.1-.17.15-.37.15-.62 0-.24-.06-.43-.17-.59-.11-.16-.26-.29-.45-.41a4.07 4.07 0 0 0-.66-.3c-.25-.08-.52-.17-.8-.27-.27-.08-.54-.19-.81-.31s-.52-.28-.73-.47c-.22-.2-.39-.43-.53-.72-.14-.28-.2-.64-.2-1.06 0-.46.1-.85.29-1.18.19-.33.44-.6.75-.82.31-.22.66-.38 1.06-.48.39-.11.8-.16 1.2-.16.46 0 .92.08 1.39.24.47.16.88.4 1.23.73l-1.06 1.12zm7.92-.48h-2.76v-1.4h7.13v1.4h-2.76v7.61h-1.6V29.3zm9-1.41h2.51l2.34 6.4h.04l2.32-6.4h2.52v9.01h-1.59v-7.24h-.03l-2.74 7.24h-1.12l-2.7-7.24h-.03v7.24h-1.53v-9.01zm15.3 0h5.97v1.4h-4.37v2.29h4.14v1.35h-4.14v2.55h4.6v1.43h-6.2v-9.02zm11.36 0h2.13l4.19 6.75h.03v-6.75h1.6v9.01h-2.04l-4.28-6.96h-.03v6.96h-1.6v-9.01zm15.33 1.41h-2.76v-1.4h7.13v1.4h-2.76v7.61h-1.6V29.3zm13.51.48c-.17-.22-.41-.4-.72-.55-.31-.15-.62-.22-.94-.22-.19 0-.37.02-.56.07-.19.05-.36.12-.51.22-.15.1-.28.23-.38.38-.1.16-.15.35-.15.57 0 .2.04.38.13.52s.2.27.35.37c.15.1.33.19.54.27.21.08.44.15.7.23.29.09.59.2.9.32.31.12.59.28.85.47.26.2.47.44.64.74.17.3.25.67.25 1.11 0 .48-.09.91-.27 1.27-.18.36-.42.66-.71.9-.3.24-.64.42-1.04.53-.4.12-.82.18-1.26.18-.59 0-1.16-.11-1.72-.32-.56-.22-1.02-.54-1.37-.96l1.15-1.07c.22.31.52.55.88.73.37.18.73.27 1.09.27.19 0 .38-.02.57-.07s.37-.13.53-.24.28-.25.38-.41c.1-.17.15-.37.15-.62 0-.24-.06-.43-.17-.59a1.58 1.58 0 0 0-.44-.41 4.07 4.07 0 0 0-.66-.3c-.25-.08-.52-.17-.8-.27-.27-.08-.54-.19-.81-.31s-.52-.28-.73-.47c-.22-.2-.39-.43-.53-.72-.14-.28-.2-.64-.2-1.06 0-.46.1-.85.29-1.18.19-.33.44-.6.75-.82.31-.22.66-.38 1.06-.48.39-.11.8-.16 1.2-.16.46 0 .92.08 1.39.24.47.16.88.4 1.23.73l-1.06 1.11z"/></svg>