<?xml version="1.0" encoding="UTF-8"?>
<svg width="64px" height="61px" viewBox="0 0 64 61" version="1.1" xmlns="http://www.w3.org/2000/svg" xmlns:xlink="http://www.w3.org/1999/xlink">
    <!-- Generator: Sketch 61.2 (89653) - https://sketch.com -->
    <title>icon</title>
    <desc>Created with Sketch.</desc>
    <defs>
        <polygon id="path-1" points="0.133 0.503 56.3566143 0.503 56.3566143 60.503 0.133 60.503"></polygon>
    </defs>
    <g id="Symbols" stroke="none" stroke-width="1" fill="none" fill-rule="evenodd">
        <g id="Capabilities_Component_D" transform="translate(-830.000000, -275.000000)">
            <g id="Capabilities-Component-D">
                <g id="Asset-Classes" transform="translate(830.000000, 100.000000)">
                    <g id="icon" transform="translate(0.000000, 175.000000)">
                        <path d="M22.535,30.499 C22.537,26.496 25.646,23.205 29.577,22.92 C29.891,22.897 30.134,22.636 30.134,22.322 L30.134,19.915 C30.134,19.75 30.066,19.594 29.946,19.48 C29.827,19.366 29.666,19.307 29.5,19.318 C26.747,19.47 24.181,20.614 22.216,22.578 C20.101,24.693 18.936,27.505 18.934,30.499 C18.936,36.676 23.961,41.7 30.135,41.7 L30.138,41.7 C34.116,41.7 37.83,39.553 39.83,36.096 C40.327,35.236 40.033,34.134 39.173,33.637 C38.312,33.136 37.21,33.433 36.713,34.294 C35.354,36.641 32.835,38.099 30.138,38.099 L30.135,38.099 C25.946,38.099 22.537,34.69 22.535,30.499" id="Fill-18" fill="#FFFFFE"></path>
                        <path d="M43.672,24.434 C41.684,24.434 40.072,26.045 40.072,28.035 L40.072,31.635 L43.672,31.633 C45.66,31.635 47.271,30.022 47.271,28.035 C47.271,26.045 45.66,24.436 43.672,24.434" id="Fill-19" fill="#FFFFFE"></path>
                        <path d="M13.136,30.5 C13.136,25.957 14.903,21.688 18.114,18.476 C21.188,15.403 25.231,13.65 29.556,13.506 C29.878,13.495 30.135,13.231 30.135,12.908 L30.135,10.504 C30.135,10.343 30.07,10.188 29.953,10.074 C29.837,9.962 29.68,9.901 29.517,9.90571509 C24.246,10.059 19.313,12.187 15.568,15.93 C11.678,19.822 9.535,24.997 9.535,30.5 C9.535,41.857 18.775,51.1 30.136,51.102 C37.454,51.102 44.284,47.152 47.964,40.794 C48.463,39.934 48.168,38.833 47.308,38.334 C46.445,37.834 45.346,38.131 44.847,38.99 C41.81,44.24 36.171,47.501 30.136,47.502 C20.761,47.5 13.134,39.873 13.136,30.5" id="Fill-20" fill="#FFFFFE"></path>
                        <g id="Group-24">
                            <mask id="mask-2" fill="white">
                                <use xlink:href="#path-1"></use>
                            </mask>
                            <g id="Clip-22"></g>
                            <path d="M51.808,29.134 C49.819,29.134 48.207,30.745 48.207,32.735 L48.207,36.334 L51.808,36.334 C53.796,36.334 55.408,34.719 55.409,32.735 C55.408,30.743 53.796,29.134 51.808,29.134" id="Fill-21" fill="#FFFFFE" mask="url(#mask-2)"></path>
                            <path d="M55.458,43.04 C54.598,42.543 53.496,42.838 52.998,43.698 C48.287,51.842 39.525,56.902 30.135,56.903 C15.577,56.903 3.732,45.058 3.732,30.498 C3.732,16.136 15.26,4.418 29.548,4.103 C29.875,4.096 30.135,3.83 30.135,3.505 L30.135,1.102 C30.135,0.942 30.071,0.787 29.956,0.674 C29.84,0.561 29.684,0.499 29.523,0.502817762 C13.26,0.83 0.133,14.159 0.133,30.498 C0.133,47.042 13.591,60.503 30.135,60.503 C40.808,60.502 50.762,54.754 56.114,45.5 C56.612,44.64 56.319,43.538 55.458,43.04" id="Fill-23" fill="#FFFFFE" mask="url(#mask-2)"></path>
                        </g>
                        <path d="M59.959,33.839 C57.972,33.839 56.358,35.451 56.358,37.44 L56.358,41.038 L59.959,41.0400005 C61.947,41.041 63.559,39.43 63.56,37.44 C63.56,35.451 61.946,33.839 59.959,33.839" id="Fill-25" fill="#FFFFFE"></path>
                    </g>
                </g>
            </g>
        </g>
    </g>
</svg>