<?xml version="1.0" encoding="UTF-8"?>
<svg width="62px" height="60px" viewBox="0 0 62 60" version="1.1" xmlns="http://www.w3.org/2000/svg" xmlns:xlink="http://www.w3.org/1999/xlink">
    <!-- Generator: Sketch 61.2 (89653) - https://sketch.com -->
    <title>Icon</title>
    <desc>Created with Sketch.</desc>
    <g id="Symbols" stroke="none" stroke-width="1" fill="none" fill-rule="evenodd">
        <g id="Capabilities_Component_D" transform="translate(-830.000000, -112.000000)" fill="#FFFFFE">
            <g id="Capabilities-Component-D">
                <g id="Asset-Classes" transform="translate(830.000000, 100.000000)">
                    <g id="Icon" transform="translate(0.000000, 12.000000)">
                        <path d="M10.385,31.393 C11.062,25.702 14.084,20.735 18.455,17.458 C17.474,15.74 16.842,13.802 16.662,11.735 C9.65,16.205 4.901,23.912 4.54,32.737 C6.372,31.882 8.362,31.408 10.385,31.393" id="Fill-9"></path>
                        <path d="M51.018,31.393 C53.032,31.409 55.014,31.882 56.841,32.732 C56.477,23.912 51.737,16.205 44.73,11.735 C44.547,13.804 43.917,15.74 42.937,17.458 C47.308,20.735 50.339,25.705 51.018,31.393" id="Fill-10"></path>
                        <path d="M38.761,52.625 C36.284,53.691 33.56,54.286 30.696,54.286 C27.835,54.286 25.108,53.691 22.631,52.625 C21.635,54.323 20.275,55.831 18.581,57.017 C22.207,58.919 26.327,60 30.696,60 C35.066,60 39.186,58.919 42.81,57.017 C41.117,55.831 39.757,54.323 38.761,52.625" id="Fill-11"></path>
                        <polyline id="Fill-12" points="29.458 11.411 31.818 11.411 30.654 7.782 29.458 11.411"></polyline>
                        <path d="M30.696,8.52651283e-14 C24.901,8.52651283e-14 20.201,4.699 20.201,10.496 C20.201,16.293 24.901,20.992 30.696,20.992 C36.492,20.992 41.19,16.293 41.19,10.496 C41.19,4.699 36.492,8.52651283e-14 30.696,8.52651283e-14 M33.072,15.299 L32.339,13.096 L28.955,13.096 L28.218,15.299 L25.945,15.299 L29.529,5.694 L31.936,5.694 L35.449,15.299 L33.072,15.299" id="Fill-13"></path>
                        <path d="M50.895,34.922 C45.1,34.922 40.399,39.621 40.399,45.418 C40.399,51.216 45.1,55.914 50.895,55.914 C56.69,55.914 61.389,51.216 61.389,45.418 C61.389,39.621 56.69,34.922 50.895,34.922 M54.682,49.234 C54.394,49.478 54.075,49.693 53.726,49.874 C53.374,50.056 52.994,50.201 52.586,50.306 C52.179,50.412 51.754,50.465 51.314,50.465 C50.582,50.465 49.917,50.34 49.312,50.09 C48.708,49.841 48.185,49.492 47.749,49.047 C47.313,48.6 46.973,48.072 46.734,47.462 C46.493,46.854 46.373,46.183 46.373,45.454 C46.373,44.743 46.493,44.078 46.734,43.459 C46.973,42.84 47.313,42.303 47.749,41.846 C48.185,41.391 48.71,41.03 49.319,40.767 C49.929,40.502 50.602,40.37 51.341,40.37 C52.234,40.37 53.015,40.533 53.682,40.86 C54.349,41.186 54.904,41.657 55.345,42.271 L53.862,43.697 C53.573,43.292 53.233,42.969 52.839,42.725 C52.446,42.48 51.975,42.357 51.429,42.357 C50.995,42.357 50.608,42.436 50.262,42.595 C49.917,42.754 49.625,42.972 49.382,43.251 C49.144,43.528 48.959,43.853 48.829,44.222 C48.698,44.593 48.635,44.983 48.635,45.396 C48.635,45.818 48.698,46.212 48.829,46.577 C48.959,46.942 49.144,47.258 49.382,47.527 C49.625,47.797 49.913,48.007 50.248,48.161 C50.582,48.314 50.962,48.391 51.384,48.391 C51.732,48.391 52.031,48.355 52.285,48.282 C52.54,48.211 52.765,48.116 52.962,47.995 C53.158,47.875 53.334,47.736 53.486,47.577 C53.641,47.419 53.789,47.258 53.935,47.096 L55.418,48.449 C55.216,48.727 54.97,48.989 54.682,49.234" id="Fill-14"></path>
                        <path d="M10.696,44.467 C10.855,44.429 10.994,44.369 11.113,44.287 C11.235,44.205 11.334,44.094 11.41,43.955 C11.486,43.816 11.526,43.646 11.526,43.445 C11.526,43.233 11.486,43.058 11.41,42.919 C11.334,42.779 11.233,42.669 11.106,42.587 C10.982,42.507 10.842,42.448 10.682,42.415 C10.526,42.381 10.368,42.365 10.213,42.365 L8.934,42.365 L8.934,44.524 L10.213,44.524 C10.377,44.524 10.539,44.504 10.696,44.467" id="Fill-15"></path>
                        <path d="M11.409,46.346 C11.248,46.255 11.069,46.192 10.877,46.158 C10.685,46.125 10.506,46.108 10.345,46.108 L8.934,46.108 L8.934,48.614 L10.345,48.614 C10.497,48.614 10.67,48.601 10.862,48.577 C11.054,48.555 11.233,48.498 11.394,48.413 C11.558,48.326 11.694,48.2 11.804,48.038 C11.915,47.875 11.971,47.649 11.971,47.362 C11.971,47.101 11.918,46.891 11.813,46.728 C11.707,46.565 11.573,46.437 11.409,46.346" id="Fill-16"></path>
                        <path d="M10.495,34.987 C4.7,34.987 -8.15347789e-13,39.686 -8.15347789e-13,45.483 C-8.15347789e-13,51.279 4.7,55.979 10.495,55.979 C16.29,55.979 20.992,51.279 20.992,45.483 C20.992,39.686 16.29,34.987 10.495,34.987 M13.908,48.8 C13.732,49.146 13.481,49.43 13.159,49.65 C12.839,49.872 12.445,50.032 11.978,50.133 C11.512,50.233 10.992,50.285 10.415,50.285 L6.814,50.285 L6.814,40.679 L10.415,40.679 C11.011,40.679 11.515,40.749 11.929,40.888 C12.342,41.027 12.676,41.212 12.937,41.443 C13.195,41.673 13.383,41.94 13.498,42.242 C13.612,42.545 13.671,42.859 13.671,43.185 C13.671,43.492 13.614,43.764 13.504,43.998 C13.395,44.234 13.265,44.435 13.116,44.603 C12.967,44.772 12.809,44.904 12.642,44.999 C12.473,45.095 12.333,45.157 12.214,45.186 C12.388,45.225 12.588,45.295 12.813,45.395 C13.04,45.496 13.253,45.64 13.456,45.828 C13.657,46.014 13.827,46.25 13.966,46.533 C14.104,46.816 14.174,47.15 14.174,47.533 C14.174,48.033 14.085,48.455 13.908,48.8" id="Fill-17"></path>
                    </g>
                </g>
            </g>
        </g>
    </g>
</svg>