<?xml version="1.0" encoding="UTF-8"?>
<svg width="61px" height="60px" viewBox="0 0 61 60" version="1.1" xmlns="http://www.w3.org/2000/svg" xmlns:xlink="http://www.w3.org/1999/xlink">
    <!-- Generator: Sketch 61.2 (89653) - https://sketch.com -->
    <title>icon</title>
    <desc>Created with Sketch.</desc>
    <g id="Symbols" stroke="none" stroke-width="1" fill="none" fill-rule="evenodd">
        <g id="Capabilities_Component_D" transform="translate(-830.000000, -440.000000)" fill="#FFFFFE">
            <g id="Capabilities-Component-D">
                <g id="Asset-Classes" transform="translate(830.000000, 100.000000)">
                    <g id="icon" transform="translate(0.000000, 340.000000)">
                        <path d="M3.6,31.826 C3.6,32.819 2.795,33.626 1.8,33.626 C0.806,33.626 0.001,32.819 0.001,31.826 C0.001,30.83 0.806,30.025 1.8,30.025 C2.795,30.025 3.6,30.83 3.6,31.826" id="Fill-1"></path>
                        <path d="M3.6,22.226 C3.6,23.219 2.795,24.026 1.8,24.026 C0.806,24.026 0.001,23.219 0.001,22.226 C0.001,21.23 0.806,20.425 1.8,20.425 C2.795,20.425 3.6,21.23 3.6,22.226" id="Fill-2"></path>
                        <path d="M3.6,12.626 C3.6,13.62 2.795,14.426 1.8,14.426 C0.806,14.426 0.001,13.62 0.001,12.626 C0.001,11.63 0.806,10.825 1.8,10.825 C2.795,10.825 3.6,11.63 3.6,12.626" id="Fill-3"></path>
                        <polyline id="Fill-4" points="8.002 36.801 13.718 27.575 30.998 31.277 48.334 21.418 56.83 8.053 60.254 10.228 59.818 -8.52651283e-14 50.367 3.944 53.793 6.122 45.777 18.731 30.411 27.471 11.993 23.524 2.054 39.566 8.002 36.801"></polyline>
                        <path d="M30.601,41.276 L12.401,38.725 L-2.84217094e-13,44.488 L-2.84217094e-13,60 L58.801,60 L58.801,44.726 L42.2,33.327 L30.601,41.276 Z M44.584,42.904 L55.2,52.05 L55.2,56.401 L4.969,56.401 L11.501,45.225 L25.446,51.546 L44.584,42.904 L44.584,42.904 Z" id="Fill-5"></path>
                    </g>
                </g>
            </g>
        </g>
    </g>
</svg>