<?xml version="1.0" encoding="UTF-8"?>
<svg width="60px" height="60px" viewBox="0 0 60 60" version="1.1" xmlns="http://www.w3.org/2000/svg" xmlns:xlink="http://www.w3.org/1999/xlink">
    <!-- Generator: Sketch 61.2 (89653) - https://sketch.com -->
    <title>icon</title>
    <desc>Created with Sketch.</desc>
    <g id="Symbols" stroke="none" stroke-width="1" fill="none" fill-rule="evenodd">
        <g id="Capabilities_Component_D" transform="translate(-830.000000, -604.000000)" fill="#FFFFFE">
            <g id="Capabilities-Component-D">
                <g id="Asset-Classes" transform="translate(830.000000, 100.000000)">
                    <g id="icon" transform="translate(0.000000, 504.000000)">
                        <path d="M12.419504,26.595 L29.604504,38.277 L46.787504,26.595 L42.250504,20.608 L30.923504,28.309 C30.121504,28.854 29.086504,28.855 28.283504,28.307 L16.958504,20.608 L12.419504,26.595 Z M29.604504,40.868 C29.373504,40.868 29.143504,40.8 28.944504,40.666 L10.079504,27.841 C9.81450404,27.66 9.63350404,27.379 9.58150404,27.061 C9.52950404,26.743 9.61050404,26.419 9.80450404,26.163 L15.762504,18.304 C16.140504,17.806 16.840504,17.691 17.356504,18.042 L29.604504,26.368 L41.854504,18.042 C42.370504,17.691 43.069504,17.806 43.446504,18.304 L49.402504,26.163 C49.597504,26.419 49.677504,26.743 49.625504,27.061 C49.573504,27.377 49.393504,27.66 49.128504,27.841 L30.263504,40.666 C30.064504,40.8 29.833504,40.868 29.604504,40.868 L29.604504,40.868 Z" id="Fill-6"></path>
                        <polyline id="Fill-7" points="29.604504 21.99 40.600504 14.514 29.604504 -1.13686838e-13 18.610504 14.514 29.604504 21.99"></polyline>
                        <path d="M2.85350404,39.225 L29.604504,57.408 L56.354504,39.224 L51.816504,33.233 L30.923504,47.435 C30.121504,47.978 29.088504,47.978 28.287504,47.436 C28.286504,47.435 28.285504,47.435 28.285504,47.435 L7.39450404,33.232 L2.85350404,39.225 Z M29.604504,60 C29.373504,60 29.143504,59.931 28.944504,59.797 L0.513504037,40.47 C0.247504037,40.29 0.0675040374,40.008 0.0155040374,39.69 C-0.0364959626,39.372 0.0435040374,39.048 0.237504037,38.792 L6.19750404,30.928 C6.57450404,30.431 7.27550404,30.315 7.79150404,30.666 L29.603504,45.494 L29.605504,45.494 L51.419504,30.666 C51.936504,30.314 52.637504,30.431 53.013504,30.928 L58.969504,38.792 C59.163504,39.048 59.243504,39.372 59.192504,39.69 C59.140504,40.008 58.959504,40.29 58.694504,40.47 L30.263504,59.797 C30.064504,59.931 29.833504,60 29.604504,60 L29.604504,60 Z" id="Fill-8"></path>
                    </g>
                </g>
            </g>
        </g>
    </g>
</svg>