<svg xmlns="http://www.w3.org/2000/svg" width="80" height="80"><g fill="none" fill-rule="evenodd"><rect width="80" height="80" fill="#006A51" fill-rule="nonzero" rx="40"/><path d="M40.299 42.926V29.662m5.974-6.632c0-3.33-2.675-6.03-5.974-6.03-3.3 0-5.974 2.7-5.974 6.03 0 3.329 2.675 6.029 5.974 6.029 3.299 0 5.974-2.7 5.974-6.03zm-5.974 19.896l-11.35 6.633m-8.962-2.809c-2.857 1.664-3.835 5.351-2.185 8.235 1.649 2.883 5.302 3.87 8.16 2.207 2.855-1.665 3.835-5.352 2.184-8.237-1.648-2.882-5.302-3.87-8.159-2.205zm20.312-3.824l11.35 6.633m8.364-2.809c2.857 1.664 3.835 5.351 2.185 8.235-1.649 2.883-5.302 3.87-8.16 2.207-2.855-1.665-3.835-5.352-2.184-8.237 1.648-2.882 5.302-3.87 8.159-2.205z" stroke="#FFF" stroke-width="4.32"/></g></svg>