<svg id="Layer_5" data-name="Layer 5" xmlns="http://www.w3.org/2000/svg" xmlns:xlink="http://www.w3.org/1999/xlink" viewBox="0 0 1105.81 350.1"><defs><style>.cls-1{fill:#ffc22c;}.cls-1,.cls-2,.cls-3{fill-rule:evenodd;}.cls-2{fill:url(#linear-gradient);}.cls-3{fill:url(#linear-gradient-2);}.cls-4{fill:#231f20;}</style><linearGradient id="linear-gradient" x1="38.87" y1="164.16" x2="392.77" y2="245.86" gradientUnits="userSpaceOnUse"><stop offset="0" stop-color="#35b5e8"/><stop offset="0.67" stop-color="#086ea0"/></linearGradient><linearGradient id="linear-gradient-2" x1="554.87" y1="354.93" x2="95.94" y2="140.93" gradientUnits="userSpaceOnUse"><stop offset="0.41" stop-color="#f15e22"/><stop offset="1" stop-color="#a93323"/></linearGradient></defs><title>oppnet-logo_V02</title><path class="cls-1" d="M229.46,87c-81.34.63-162.25,52.78-178.57,128.61-15.75,73.13,38.36,141.44,126,151.52a113.44,113.44,0,0,1-20-18.55,120.22,120.22,0,0,1-18.46-25.26,117.48,117.48,0,0,1-11.15-23.27q-1.61-3.88-3-7.7a105.36,105.36,0,0,1-16.14-56.21c.29-66.38,63.23-120.65,140.57-121.23,58.94-.44,109.2,30.44,129.68,74.53C365,127.1,302,86.44,229.46,87Z" transform="translate(-36.52 -34.53)"/><path class="cls-2" d="M394.23,219.22C390.88,133.77,306.79,59.57,207.52,53.5,109.44,47.52,33.41,110.44,36.61,194,39,257.21,86.12,314.94,151.37,342.77a69.46,69.46,0,0,1-5.86-8.06c-12.69-21.83-22.12-40.42-25.83-58.75a133.07,133.07,0,0,1-20.35-56.09C90.07,142.28,153,82.46,238.34,88.35c83.7,5.78,146.87,71.37,147.16,140.9a113,113,0,0,1-22.4,68.38C343,324.14,310,341.26,275.47,345.54c17.9,1.29,34.88-.88,49.6-7.7-.07.07-.12.15-.19.22l1.28-.74a72.66,72.66,0,0,0,16.44-10.89C375.93,301,396,263.15,394.23,219.22Z" transform="translate(-36.52 -34.53)"/><path class="cls-3" d="M373.39,197.52c-2.17-11.64-13.83-29.06-17.86-34.39-.32-.29-.57-.66-.87-1s-.38-.47-.56-.71c-.8-.81-1.57-1.61-2.32-2.41a56.17,56.17,0,0,0-6.69-7.11A72.62,72.62,0,0,0,335,143.05h0c-1.05-.74-2.15-1.48-3.32-2.2l-.12-.07c-.49-.31-1-.6-1.51-.9l-.41-.24-1.76-1c3.13,14.07,3.46,30.71,2.83,47.08,0,1.16-.1,2.31-.17,3.47,0,.37-.05.75-.07,1.12-.05.79-.1,1.57-.16,2.35,0,.44-.07.88-.11,1.32-.06.72-.12,1.44-.19,2.16,0,.45-.08.91-.13,1.37-.07.71-.15,1.42-.23,2.12L329.5,201c-.09.75-.18,1.5-.28,2.24-.05.4-.1.8-.16,1.2-.13.93-.26,1.86-.41,2.8,0,.2,0,.41-.09.61-.17,1.13-.36,2.26-.55,3.38-.06.35-.13.7-.19,1-.14.78-.28,1.56-.43,2.33-.09.44-.17.87-.26,1.31l-.42,2.06c-.1.46-.2.92-.29,1.38l-.45,2c-.1.46-.21.92-.32,1.38-.16.67-.32,1.35-.49,2-.11.43-.21.87-.32,1.3l-.6,2.29-.27,1c-.29,1.07-.59,2.13-.9,3.2-.1.34-.21.69-.31,1l-.66,2.18c-.14.45-.29.89-.43,1.34l-.6,1.87c-.16.47-.32.94-.47,1.41l-.61,1.77-.51,1.44-.63,1.74c-.18.47-.35.94-.53,1.4-.22.62-.46,1.22-.7,1.83l-.5,1.28c-.37.92-.74,1.84-1.12,2.75-.19.46-.39.92-.58,1.37-.26.62-.52,1.23-.79,1.84s-.43,1-.64,1.43l-.7,1.57-.69,1.47-.7,1.48-.73,1.48c-.23.48-.47,1-.71,1.43s-.5,1-.76,1.49l-.72,1.39c-.26.49-.52,1-.79,1.48s-.48.88-.72,1.32c-.53,1-1.07,1.93-1.62,2.89-.23.39-.45.79-.67,1.18l-.93,1.54c-.23.4-.47.79-.7,1.18l-.95,1.53-.72,1.14c-.32.51-.65,1-1,1.52s-.47.73-.71,1.1l-1,1.52-.7,1c-.36.52-.72,1.05-1.09,1.57-.17.25-.36.5-.54.75-1.37,1.92-2.78,3.79-4.21,5.62l-.59.75-1.24,1.53-.67.81c-.41.5-.83,1-1.25,1.49l-.68.79c-.43.5-.86,1-1.3,1.48l-.63.71L284.89,302c-.14.15-.29.3-.43.46-1.69,1.8-3.41,3.55-5.18,5.24l-.34.33-1.55,1.44c-.19.18-.38.36-.58.53-.5.46-1,.91-1.51,1.35l-.63.56-1.54,1.31-.59.49L270.91,315l-.39.3q-3.87,3.07-7.92,5.76l-.49.32-1.73,1.11-.61.37c-.57.36-1.15.71-1.73,1l-.59.35-1.8,1-.44.24a95.31,95.31,0,0,1-8.57,4.17l-.44.19c-.62.26-1.25.52-1.87.76l-.64.25q-.91.36-1.83.69l-.67.24-1.87.64-.57.18-2,.62A83,83,0,0,1,211,336.66c-31-.85-56-19.25-71.89-47.06-.52-.9-1-1.82-1.53-2.74l-.06-.11c-.48-.89-.95-1.79-1.41-2.69l-.11-.22c-.44-.87-.88-1.75-1.3-2.65a2.09,2.09,0,0,1-.14-.3c-.41-.86-.82-1.73-1.21-2.61-.06-.12-.12-.25-.17-.38-.38-.85-.76-1.71-1.12-2.58l-.2-.47c-.35-.84-.7-1.69-1-2.54l-.21-.54c-.33-.84-.65-1.68-1-2.53-.08-.2-.15-.4-.22-.6-.31-.83-.6-1.67-.89-2.51-.08-.22-.15-.44-.23-.67-.27-.82-.55-1.65-.81-2.48l-.24-.74q-.37-1.22-.75-2.46c-.08-.26-.15-.53-.23-.8l-.69-2.44c-.07-.28-.15-.57-.23-.85-.21-.81-.42-1.62-.62-2.43-.08-.3-.15-.61-.23-.91-.19-.8-.38-1.6-.56-2.41-.08-.32-.15-.64-.22-1-.18-.79-.35-1.58-.51-2.38l-.21-1-.45-2.36c-.07-.36-.13-.72-.2-1.08-.14-.77-.27-1.56-.39-2.34-.07-.38-.13-.75-.19-1.13-.12-.77-.23-1.54-.34-2.32-.06-.39-.12-.79-.17-1.19-.11-.76-.2-1.53-.29-2.3q-.09-.61-.15-1.23c-.09-.75-.17-1.51-.25-2.27,0-.43-.09-.86-.13-1.29-.07-.75-.13-1.5-.2-2.25,0-.45-.07-.89-.1-1.33-.06-.74-.11-1.49-.15-2.24l-.09-1.36c0-.75-.07-1.49-.1-2.23,0-.47,0-.94-.06-1.41,0-.73,0-1.47-.06-2.21,0-.47,0-1,0-1.43,0-.74,0-1.47,0-2.21,0-.49,0-1,0-1.46,0-.73,0-1.46,0-2.19l0-1.5c0-.72,0-1.45.07-2.18,0-.51,0-1,0-1.52,0-.73.08-1.46.11-2.19l.09-1.52c0-.73.1-1.47.16-2.2,0-.51.07-1,.11-1.53.06-.74.13-1.49.21-2.24,0-.5.08-1,.13-1.49.08-.77.17-1.55.26-2.32.06-.48.11-.95.16-1.43.11-.85.22-1.7.34-2.55,0-.4.1-.8.16-1.2.18-1.25.37-2.51.57-3.76s.39-2.34.6-3.5c.07-.39.14-.77.22-1.15.14-.78.28-1.55.43-2.32.09-.45.19-.91.28-1.36.14-.69.28-1.38.43-2.06l.33-1.45c.14-.65.28-1.3.44-1.94s.24-1,.36-1.5l.45-1.86.39-1.51.48-1.81.42-1.52c.17-.58.33-1.17.5-1.75l.45-1.52c.17-.58.34-1.15.52-1.72l.48-1.52.54-1.68c.16-.51.33-1,.5-1.52s.38-1.09.56-1.63l.54-1.52c.19-.53.38-1.07.58-1.6s.37-1,.56-1.51l.6-1.56c.19-.5.39-1,.59-1.5s.41-1,.61-1.52l.63-1.51c.2-.49.41-1,.62-1.47l.66-1.51.63-1.42.69-1.52c.21-.46.42-.91.64-1.36l.72-1.53c.21-.43.43-.86.64-1.3l.77-1.55.63-1.2.82-1.59.59-1.1.9-1.66.51-.89,1-1.82.22-.36c1.9-3.28,3.9-6.46,6-9.53l.17-.24c.45-.67.91-1.32,1.37-2l.33-.47c.44-.62.89-1.24,1.34-1.85l.38-.54,1.34-1.78.42-.56,1.34-1.72.45-.57,1.37-1.68.45-.55c.46-.56.93-1.11,1.39-1.65l.45-.52c.48-.56,1-1.1,1.43-1.64l.44-.49,1.47-1.61.42-.45,1.52-1.6.39-.4c.52-.54,1-1.08,1.58-1.6l.35-.34c.55-.55,1.1-1.08,1.65-1.61l.29-.27c.57-.55,1.15-1.08,1.73-1.62l.21-.19c.61-.56,1.23-1.1,1.84-1.64l.11-.09C192.37,63.32,212.39,54.22,232.56,53h0q3.45-.23,6.9-.13c20.93.56,40.21,9.74,55.61,25.45l3,1.56a119.65,119.65,0,0,1,25.7,39.48,137.8,137.8,0,0,1,46.81,53.12,205,205,0,0,0-6.17-33.17c.56.82,1.13,1.65,1.68,2.47-11-42.21-34.05-79.91-68.69-97.13-44.5-22.12-100.05-7.47-139,40.73l-.26.34q-1.42,1.76-2.8,3.57l-.34.44q-4.49,5.94-8.64,12.51l-.54.85c-.72,1.16-1.43,2.34-2.14,3.52l-.61,1c-.74,1.26-1.46,2.53-2.18,3.83l-.38.66q-1.29,2.34-2.53,4.74l-.13.25c-.74,1.45-1.48,2.92-2.2,4.41L135,122.8q-.84,1.76-1.65,3.54l-.69,1.52c-.54,1.23-1.08,2.47-1.61,3.72-.18.44-.37.87-.55,1.3q-1,2.53-2.06,5.13c-.06.13-.1.26-.15.39q-.92,2.37-1.79,4.8c-.2.55-.39,1.11-.58,1.66-.43,1.23-.86,2.47-1.28,3.72-.2.62-.41,1.25-.62,1.88-.41,1.26-.81,2.54-1.2,3.83-.18.57-.35,1.13-.53,1.71-.55,1.85-1.09,3.71-1.61,5.6-.45,1.67-.89,3.35-1.31,5-.14.56-.26,1.11-.4,1.66-.27,1.12-.54,2.25-.8,3.37-.15.66-.29,1.31-.43,2l-.66,3.08c-.14.69-.27,1.38-.41,2.06-.19,1-.38,2-.56,3-.13.7-.25,1.4-.37,2.1-.18,1-.34,2-.5,3l-.33,2.07c-.15,1-.29,2-.43,3-.09.66-.19,1.31-.27,2-.15,1.14-.29,2.29-.42,3.44l-.18,1.54c-.17,1.62-.33,3.24-.47,4.85-.06.61-.1,1.22-.14,1.83q-.14,1.54-.24,3.09l-.12,2.22-.15,2.67-.09,2.36c0,.84,0,1.67-.07,2.51s0,1.62-.05,2.43,0,1.6,0,2.4,0,1.66,0,2.48l0,2.31c0,.84,0,1.69.06,2.54s0,1.43.08,2.14c0,.89.06,1.78.1,2.66,0,.51.06,1,.1,1.51q.16,3.16.44,6.31c0,.41.07.82.1,1.23.09,1,.2,2,.3,3,.06.54.11,1.08.18,1.62.11,1,.23,2,.35,2.93l.21,1.65c.13,1,.27,1.95.41,2.92l.24,1.58q.23,1.49.48,3c.08.47.17.95.25,1.43.18,1,.37,2.05.56,3.07.08.38.15.75.23,1.12.21,1.12.44,2.24.68,3.35l0,.14q1.32,6.13,3,12.07l0,.13c.33,1.16.66,2.3,1,3.44l.22.76c.33,1.08.67,2.15,1,3.22.09.3.19.6.29.89.34,1.06.7,2.1,1.06,3.14l.3.87c.38,1.06.76,2.11,1.15,3.15.08.23.17.45.25.67.42,1.12.85,2.22,1.29,3.32h0c20.35,50.84,60.65,85.41,110.91,82.61,37.59-2.09,68.92-23.5,92-53.84l.08-.1c.66-.87,1.32-1.75,2-2.64l.16-.23c.63-.85,1.24-1.71,1.85-2.58l.24-.34c.59-.84,1.17-1.68,1.75-2.53.1-.15.2-.29.29-.44q.84-1.23,1.65-2.49l.35-.52c.52-.82,1-1.63,1.55-2.45l.39-.62,1.47-2.4.42-.71c.47-.78.93-1.57,1.39-2.36l.46-.79c.44-.77.88-1.55,1.31-2.33l.48-.86c.42-.76.84-1.53,1.25-2.3l.49-.92,1.18-2.27.51-1c.38-.74.75-1.49,1.12-2.23.17-.35.35-.71.52-1.07.36-.73.71-1.46,1.06-2.2.18-.37.35-.75.53-1.13.33-.72.67-1.44,1-2.17l.53-1.19c.32-.71.64-1.43.95-2.14l.53-1.25c.3-.7.6-1.4.89-2.11.19-.44.36-.87.54-1.31.29-.69.56-1.38.84-2.08.18-.45.36-.91.53-1.36.27-.68.54-1.36.8-2.05.17-.47.35-.94.53-1.42l.74-2,.52-1.47.7-2,.51-1.51c.22-.66.44-1.31.65-2s.34-1.05.5-1.57.41-1.28.61-1.93.33-1.07.49-1.6l.57-1.91c.16-.54.32-1.09.47-1.64s.36-1.25.53-1.87.31-1.13.46-1.69.33-1.23.49-1.84.29-1.16.44-1.74l.45-1.81.42-1.76c.13-.6.28-1.19.41-1.78s.27-1.21.4-1.82.26-1.15.38-1.74.25-1.24.38-1.86.23-1.13.34-1.69l.36-1.94.3-1.61c.12-.68.23-1.36.34-2,.09-.51.18-1,.26-1.53.12-.71.22-1.43.33-2.14.07-.47.14-.94.22-1.41.11-.81.22-1.61.32-2.41.05-.38.11-.76.16-1.14.15-1.18.29-2.36.43-3.54.77-6.93,1.17-13.23,1.3-20.12C373.65,200,373.52,198.47,373.39,197.52Z" transform="translate(-36.52 -34.53)"/><path class="cls-4" d="M466.59,98.54H447.83v49.65h-1.91V98.54H427.15V96.63h39.44Z" transform="translate(-36.52 -34.53)"/><path class="cls-4" d="M512.38,96.63v51.56h-1.91V122.62H477.54v25.57h-1.92V96.63h1.92v24.08h32.93V96.63Z" transform="translate(-36.52 -34.53)"/><path class="cls-4" d="M528.46,98.54v22.17h25.85v1.91H528.46v23.66h29.46v1.91H526.54V96.63h31.38v1.91Z" transform="translate(-36.52 -34.53)"/><path class="cls-4" d="M486.92,230.34a27.64,27.64,0,0,1-10.3,12.28A28.6,28.6,0,0,1,435,230.26a43.88,43.88,0,0,1-3.77-18.87v-4.71a44.37,44.37,0,0,1,3.75-18.89,28.42,28.42,0,0,1,10.48-12.36,28.07,28.07,0,0,1,15.45-4.31,28.39,28.39,0,0,1,15.68,4.31,28,28,0,0,1,10.36,12.33,45.45,45.45,0,0,1,3.65,18.92v4.71A45.57,45.57,0,0,1,486.92,230.34Zm-8.45-38.58a19.5,19.5,0,0,0-6.84-9.24,18.32,18.32,0,0,0-10.77-3.14,17.77,17.77,0,0,0-10.53,3.17,20,20,0,0,0-6.95,9.26A40,40,0,0,0,441,206.58v4.81a39.93,39.93,0,0,0,2.46,14.85,20.12,20.12,0,0,0,7,9.29A17.93,17.93,0,0,0,461,238.7q9.53,0,14.69-7t5.17-20.27v-4.81A41.29,41.29,0,0,0,478.47,191.76Z" transform="translate(-36.52 -34.53)"/><path class="cls-4" d="M546.45,175a20.43,20.43,0,0,1,8.86,7.93,22.4,22.4,0,0,1,3,11.7,23.25,23.25,0,0,1-3,12.1,18.94,18.94,0,0,1-8.79,7.63A34.28,34.28,0,0,1,532.44,217H515v28.92h-9.82V172.14h27.25A31.57,31.57,0,0,1,546.45,175Zm-1.88,30.21q3.93-3.84,3.93-10.48a15.84,15.84,0,0,0-1.7-7.32,12.57,12.57,0,0,0-5.32-5.32,18.54,18.54,0,0,0-9-2H515v29h17.43Q540.65,209.06,544.57,205.21Z" transform="translate(-36.52 -34.53)"/><path class="cls-4" d="M612,175a20.43,20.43,0,0,1,8.86,7.93,22.4,22.4,0,0,1,3,11.7,23.25,23.25,0,0,1-3,12.1,18.94,18.94,0,0,1-8.79,7.63A34.28,34.28,0,0,1,597.94,217H580.51v28.92h-9.82V172.14h27.25A31.57,31.57,0,0,1,612,175Zm-1.88,30.21q3.93-3.84,3.93-10.48a15.84,15.84,0,0,0-1.7-7.32,12.57,12.57,0,0,0-5.32-5.32,18.54,18.54,0,0,0-9-2H580.51v29h17.43Q606.15,209.06,610.07,205.21Z" transform="translate(-36.52 -34.53)"/><path class="cls-4" d="M689.35,230.34A27.6,27.6,0,0,1,679,242.62a28.58,28.58,0,0,1-41.66-12.36,43.88,43.88,0,0,1-3.78-18.87v-4.71a44.37,44.37,0,0,1,3.75-18.89,28.51,28.51,0,0,1,10.49-12.36,28.07,28.07,0,0,1,15.45-4.31A28.42,28.42,0,0,1,679,175.43a28,28,0,0,1,10.36,12.33A45.46,45.46,0,0,1,693,206.68v4.71A45.57,45.57,0,0,1,689.35,230.34Zm-8.46-38.58a19.43,19.43,0,0,0-6.84-9.24,18.29,18.29,0,0,0-10.76-3.14,17.82,17.82,0,0,0-10.54,3.17,20,20,0,0,0-6.94,9.26,40,40,0,0,0-2.43,14.77v4.81a39.93,39.93,0,0,0,2.46,14.85,20.1,20.1,0,0,0,7,9.29,18,18,0,0,0,10.59,3.17q9.52,0,14.69-7t5.17-20.27v-4.81A41.28,41.28,0,0,0,680.89,191.76Z" transform="translate(-36.52 -34.53)"/><path class="cls-4" d="M761.16,245.28v.61H750.62l-16-29.89H717.44v29.89h-9.83V172.14H732q12.51,0,19.2,5.69t6.69,16.44a19.82,19.82,0,0,1-3.73,12A22.41,22.41,0,0,1,743.83,214ZM732.28,208.1a18.77,18.77,0,0,0,8.62-1.82,12.63,12.63,0,0,0,5.34-5,13.89,13.89,0,0,0,1.8-7q0-6.69-3.95-10.43T732,180.09H717.44v28Z" transform="translate(-36.52 -34.53)"/><path class="cls-4" d="M819.77,180.09H796.11v65.8h-9.72v-65.8H762.78v-8h57Z" transform="translate(-36.52 -34.53)"/><path class="cls-4" d="M882.68,222a24.59,24.59,0,0,1-3.62,13.63,22.47,22.47,0,0,1-9.72,8.43,34.22,34.22,0,0,1-27.16,0,21.69,21.69,0,0,1-9.47-8.41A25.44,25.44,0,0,1,829.24,222V172.14H839V222q0,8.41,4.53,12.69T855.89,239q7.9,0,12.41-4.28T872.81,222V172.14h9.87Z" transform="translate(-36.52 -34.53)"/><path class="cls-4" d="M944.84,245.89l-37-57v57H898V172.14h9.83L945,229.33V172.14h9.73v73.75Z" transform="translate(-36.52 -34.53)"/><path class="cls-4" d="M972.7,245.89V172.14h9.83v73.75Z" transform="translate(-36.52 -34.53)"/><path class="cls-4" d="M1051.22,180.09h-23.65v65.8h-9.73v-65.8H994.23v-8h57Z" transform="translate(-36.52 -34.53)"/><path class="cls-4" d="M1104.67,172.14h11.14l-25.38,46.19v27.56h-9.88V218.33l-25.38-46.19h11.25l19.1,37.08Z" transform="translate(-36.52 -34.53)"/><path class="cls-4" d="M478.09,326.47l-41.6-60.38v60.38h-2.44V262h2.44l41.6,60.25V262h2.39v64.45Z" transform="translate(-36.52 -34.53)"/><path class="cls-4" d="M500.58,264.41v27.71h32.31v2.39H500.58v29.57h36.83v2.39H498.19V262h39.22v2.39Z" transform="translate(-36.52 -34.53)"/><path class="cls-4" d="M593.58,264.41H570.12v62.06h-2.39V264.41H544.27V262h49.31Z" transform="translate(-36.52 -34.53)"/><path class="cls-4" d="M676,262l-17.35,64.45H656l-16-53.74-2.21-6.81-2.22,6.81-16.11,53.74h-2.7L599.38,262H602l13.37,49.84,2.92,10.58,2.92-10.58L636.47,262h2.66l15.13,49.84,2.88,10.63,3-10.63L673.43,262Z" transform="translate(-36.52 -34.53)"/><path class="cls-4" d="M730.29,313.86a23.38,23.38,0,0,1-42.61,0,34.57,34.57,0,0,1-3-14.79v-9.65a34.67,34.67,0,0,1,3-14.78,23.38,23.38,0,0,1,42.63,0,34.67,34.67,0,0,1,3,14.78v9.65A34.72,34.72,0,0,1,730.29,313.86Zm-2-37.94a21,21,0,0,0-38.57,0,32.77,32.77,0,0,0-2.59,13.41v9.74a32.85,32.85,0,0,0,2.61,13.48,21,21,0,0,0,38.57,0,33,33,0,0,0,2.59-13.48v-9.74A32.61,32.61,0,0,0,728.27,275.92Z" transform="translate(-36.52 -34.53)"/><path class="cls-4" d="M792.19,325.85v.62h-2.52l-17.13-27.58H750.18v27.58h-2.39V262h20.54a26.43,26.43,0,0,1,11,2.17,17,17,0,0,1,7.48,6.38,18.17,18.17,0,0,1,2.7,10A17.7,17.7,0,0,1,775,298.27ZM770.5,296.5a17.38,17.38,0,0,0,9-2.23,14.72,14.72,0,0,0,5.67-5.87,16.61,16.61,0,0,0,1.9-7.79,15.91,15.91,0,0,0-2.3-8.65,14.9,14.9,0,0,0-6.53-5.6,23.54,23.54,0,0,0-9.94-1.95H750.18V296.5Z" transform="translate(-36.52 -34.53)"/><path class="cls-4" d="M820,292.56l-10.31,9.52v24.39h-2.39V262h2.39v37.23L820.25,289l26.83-27h3.45l-28.68,28.86,30.89,35.59h-3.1Z" transform="translate(-36.52 -34.53)"/><path class="cls-4" d="M1142.33,172.81a12.56,12.56,0,1,1-12.52-12.23A12.28,12.28,0,0,1,1142.33,172.81Zm-22,0a9.47,9.47,0,0,0,9.54,9.76,9.36,9.36,0,0,0,9.32-9.69c0-5.44-4-9.84-9.39-9.84A9.51,9.51,0,0,0,1120.34,172.81Zm7.53,6.41H1125V167a25.07,25.07,0,0,1,4.69-.37,7.53,7.53,0,0,1,4.25.9,3.38,3.38,0,0,1,1.19,2.68,3.12,3.12,0,0,1-2.53,2.83v.15a3.63,3.63,0,0,1,2.24,3,9.27,9.27,0,0,0,.89,3.06h-3a10.23,10.23,0,0,1-1-3c-.23-1.34-1-1.94-2.54-1.94h-1.34Zm.07-6.93h1.35c1.56,0,2.83-.52,2.83-1.79,0-1.12-.82-1.87-2.61-1.87a7.07,7.07,0,0,0-1.57.15Z" transform="translate(-36.52 -34.53)"/></svg>